<svg width="328" height="404" viewBox="0 0 328 404" fill="none" xmlns="http://www.w3.org/2000/svg">
<g opacity="0.26">
<mask id="mask0" mask-type="alpha" maskUnits="userSpaceOnUse" x="0" y="0" width="419" height="404">
<rect width="418.709" height="403.39" fill="#C4C4C4"/>
</mask>
<g mask="url(#mask0)">
<g opacity="0.1">
<path fill-rule="evenodd" clip-rule="evenodd" d="M194.784 329.337L308.394 263.744C276.63 277.465 241.569 270.945 223.437 247.781C234.432 275.066 222.545 308.691 194.784 329.337ZM296.356 205.196C288.978 234.685 258.925 252.367 229.576 244.484L223.205 242.774L226.794 228.459L226.809 228.384C227.845 223.293 227.562 219.508 226.387 214.451L226.371 214.38L220.234 192.053C218.934 187.319 216.147 182.664 211 181.676C205.398 180.593 200.14 184.487 196.956 188.712C193.144 193.772 191.206 200.388 192.037 206.775L193.335 216.765L189.101 225.942C187.236 229.92 184.06 231.255 180.492 231.306L130.659 217.92C130.13 217.853 129.6 217.748 129.073 217.605L117.126 214.399C110.567 212.634 106.549 205.802 108.197 199.211C109.847 192.623 116.565 188.669 123.127 190.432L135.071 193.639C135.911 193.861 136.706 194.169 137.453 194.55L183.403 206.862C185.387 207.177 186.544 204.39 184.338 203.299L125.585 187.581C123.607 186.922 121.349 186.019 119.595 184.905C115.137 182.103 112.718 176.558 114.052 171.191C115.705 164.601 122.422 160.639 128.98 162.409L191.697 179.368C193.677 179.681 194.834 176.895 192.631 175.802L135.787 160.597C133.567 160.003 130.504 158.875 128.416 157.455C124.169 154.568 121.925 149.199 123.232 143.977C124.494 138.927 128.741 135.425 133.613 134.86C134.957 139.983 138.892 144.31 144.285 145.852C149.874 147.448 155.6 145.646 159.292 141.689C157.929 149.346 162.63 157.053 170.233 159.228C178.231 161.511 186.514 156.837 188.705 148.827L189.33 148.998C190.74 153.999 194.63 158.206 199.93 159.722C206.727 161.664 213.738 158.574 217.03 152.684C217.99 158.381 222.129 163.347 227.989 165.021C236.015 167.317 244.329 162.604 246.482 154.549L249.678 142.597C250.315 140.207 250.343 137.783 249.857 135.494L256.412 137.252C285.762 145.135 303.738 175.708 296.356 205.196ZM145.01 143.143C138.477 141.275 134.568 134.376 136.321 127.816L140.695 111.453C142.453 104.895 149.234 101.051 155.765 102.916C162.297 104.784 166.206 111.684 164.454 118.243L160.08 134.606C158.327 141.166 151.543 145.007 145.01 143.143ZM170.959 156.515C164.424 154.648 160.515 147.757 162.272 141.191L169.623 113.688C171.379 107.127 178.157 103.289 184.693 105.151C191.226 107.019 195.136 113.914 193.379 120.48L186.026 147.979C184.272 154.544 177.491 158.383 170.959 156.515ZM228.717 162.311C222.183 160.447 218.274 153.548 220.027 146.988L223.223 135.036C224.978 128.475 231.757 124.633 238.289 126.501C244.825 128.367 248.735 135.262 246.978 141.828L243.784 153.775C242.031 160.335 235.249 164.179 228.717 162.311ZM200.653 157.01C194.12 155.142 190.21 148.247 191.967 141.681L196.958 123.007C198.715 116.449 205.494 112.606 212.026 114.475C218.56 116.338 222.469 123.238 220.716 129.797L215.723 148.473C213.967 155.034 207.186 158.874 200.653 157.01ZM150.095 289.639C179.325 297.993 209.665 280.807 217.509 251.45L217.853 250.164C217.936 249.915 218.015 249.66 218.084 249.394L218.383 248.187L219.019 245.802L219.002 246.088L223.615 227.678C224.502 223.335 224.39 220.23 223.215 215.152L217.098 192.888C212.163 174.937 193.151 190.113 195.268 206.396L196.688 217.333L192.056 227.368C188.687 234.55 181.832 236.021 172.262 233.248L123.768 220.228C123.24 220.156 122.712 220.054 122.185 219.911L112.252 217.242L111.226 221.076C103.378 250.434 120.867 281.289 150.095 289.639Z" fill="white"/>
<path fill-rule="evenodd" clip-rule="evenodd" d="M109.528 48.1929C153.831 22.6145 204.706 18.392 250.498 32.2984C210.865 23.2351 168.099 28.4361 130.424 50.1881C50.2909 96.4528 23.4717 200.078 70.5359 281.596C117.598 363.11 220.748 391.693 300.881 345.429C338.557 323.677 364.445 289.244 376.413 250.389C365.56 296.999 336.464 338.944 292.161 364.523C206.302 414.093 95.7858 383.466 45.3623 296.13C-5.06315 208.79 23.669 97.7636 109.528 48.1929Z" fill="white"/>
<path fill-rule="evenodd" clip-rule="evenodd" d="M137.968 64.6769C210.411 22.8517 303.66 48.6939 346.206 122.386C388.749 196.072 364.506 289.753 292.063 331.578C264.599 347.434 234.141 353.551 204.592 351.038C227.762 350.665 251.089 344.595 272.485 332.243C340.597 292.918 363.389 204.844 323.388 135.561C283.385 66.2737 195.715 41.975 127.603 81.2998C106.207 93.6524 89.2875 110.819 77.3787 130.699C89.9756 103.849 110.503 80.5334 137.968 64.6769Z" fill="white"/>
</g>
</g>
</g>
</svg>
