<svg width="56" height="56" viewBox="0 0 56 56" fill="none" xmlns="http://www.w3.org/2000/svg">
<path d="M28 56C12.6933 56 0 43.3067 0 28C0 12.6933 12.6933 0 28 0C43.3067 0 56 12.6933 56 28C56 43.3067 43.3067 56 28 56ZM28 3.54671C14.56 3.54671 3.54671 14.56 3.54671 28C3.54671 41.44 14.56 52.4533 28 52.4533C41.44 52.4533 52.4533 41.44 52.4533 28C52.4533 14.56 41.44 3.54671 28 3.54671Z" fill="white"/>
<path d="M10.4541 19.9734H16.8008V35.8401H13.2541V22.9602H10.4541V19.9734Z" fill="white"/>
<path d="M22.2136 21.0936C23.3336 20.1602 24.6402 19.9734 26.1335 19.9734C27.6268 19.9734 29.1201 20.3469 30.0535 21.0936C31.1735 22.0269 31.5469 22.9601 31.5469 24.2668C31.5469 25.3868 30.9869 26.5067 30.2402 27.4401C31.5469 28.5601 32.1069 29.8669 32.1069 31.3602C32.1069 32.6669 31.5468 33.9734 30.4268 34.9067C29.3068 36.0267 27.8135 36.2135 26.1335 36.2135C24.4535 36.2135 22.7735 35.6534 21.8402 34.9067C20.7202 33.9734 20.1602 32.8536 20.1602 31.3602C20.1602 29.6802 20.9068 28.3734 22.0268 27.4401C20.9068 26.5067 20.7201 25.5735 20.7201 24.2668C20.5335 22.7735 21.0936 21.8402 22.2136 21.0936ZM24.4535 32.6668C25.0135 33.0401 25.5735 33.2269 26.1335 33.2269C26.8802 33.2269 27.2536 33.0401 27.8136 32.6668C28.3736 32.2935 28.7469 31.7334 28.7469 31.1734C28.7469 30.4267 28.5602 30.0535 28.0002 29.6802C27.4402 29.3069 26.8801 29.1201 26.3201 29.1201C25.5735 29.1201 25.2002 29.3069 24.6402 29.6802C24.0802 30.0535 23.8935 30.6134 23.8935 31.1734C23.7068 31.7334 23.8935 32.2935 24.4535 32.6668ZM24.4535 25.7602C25.0135 26.1336 25.3869 26.3201 25.9469 26.3201C26.5069 26.3201 27.0669 26.1336 27.4402 25.7602C28.0002 25.3869 28.1868 24.8268 28.1868 24.4534C28.1868 24.0801 28.0002 23.3335 27.4402 23.1469C27.2535 22.5869 26.8802 22.4001 26.1335 22.4001C25.5735 22.4001 25.0135 22.5869 24.6402 22.9602C24.2669 23.3336 23.8935 23.8935 23.8935 24.2668C24.0802 24.8268 24.2668 25.3869 24.4535 25.7602Z" fill="white"/>
<path d="M38.4532 33.6001V29.4936H34.5332V26.6936H38.4532V22.4001H41.6265V26.5067H45.5466V29.3067H41.6265V33.6001H38.4532Z" fill="white"/>
</svg>
