<svg width="70" height="16" viewBox="0 0 70 16" fill="none" xmlns="http://www.w3.org/2000/svg">
<path d="M14.256 9.65358C13.2894 13.471 9.36259 15.7942 5.48511 14.8422C1.60922 13.8905 -0.750287 10.0239 0.216763 6.20673C1.18291 2.38889 5.10969 0.0654608 8.98603 1.01719C12.8633 1.96892 15.2226 5.83597 14.256 9.65358Z" fill="#F7931A"/>
<path d="M10.4275 6.91454C10.5715 5.96637 9.83833 5.45665 8.83577 5.11662L9.16099 3.83221L8.36695 3.63736L8.05033 4.88793C7.84159 4.83671 7.62719 4.78839 7.41414 4.74052L7.73303 3.48171L6.93944 3.28687L6.614 4.57083C6.44122 4.53209 6.2716 4.49379 6.10695 4.45348L6.10786 4.44948L5.01281 4.18025L4.80158 5.0153C4.80158 5.0153 5.39072 5.14824 5.37828 5.15648C5.69987 5.23553 5.75799 5.44507 5.74827 5.61119L5.37782 7.07442C5.39998 7.07998 5.42871 7.088 5.46037 7.10047C5.43391 7.09401 5.40564 7.08689 5.37647 7.07998L4.85721 9.12975C4.81785 9.22595 4.71812 9.37024 4.49332 9.31546C4.50124 9.32682 3.91617 9.17361 3.91617 9.17361L3.52197 10.0686L4.55529 10.3222C4.74752 10.3696 4.93591 10.4193 5.12136 10.466L4.79276 11.7652L5.58589 11.96L5.91133 10.6747C6.12799 10.7326 6.33832 10.786 6.54412 10.8364L6.21981 12.1157L7.01385 12.3105L7.34246 11.0138C8.69646 11.2661 9.71462 11.1644 10.1432 9.95856C10.4885 8.98768 10.126 8.42764 9.41361 8.06245C9.93241 7.94465 10.3232 7.60863 10.4275 6.91454ZM8.61323 9.41945C8.36785 10.3903 6.70763 9.86548 6.16937 9.73387L6.60541 8.01278C7.14366 8.14506 8.8697 8.40693 8.61323 9.41945ZM8.85884 6.9005C8.63494 7.78365 7.25312 7.33495 6.80488 7.22495L7.2002 5.66397C7.64845 5.77397 9.09201 5.97928 8.85884 6.9005Z" fill="white"/>
<path d="M21.2081 5.11544C21.795 5.11544 22.302 5.21898 22.7281 5.42229C23.1562 5.6276 23.5095 5.90417 23.7928 6.252C24.0724 6.6016 24.2804 7.01022 24.4148 7.47851C24.5482 7.94814 24.6151 8.45296 24.6151 8.9934C24.6151 9.82355 24.4607 10.6078 24.1488 11.3471C23.8369 12.0875 23.4138 12.7297 22.8755 13.2775C22.3377 13.8246 21.7027 14.256 20.9704 14.5746C20.2392 14.8935 19.4443 15.0529 18.5908 15.0529C18.4804 15.0529 18.2863 15.0498 18.0122 15.0443C17.7381 15.0387 17.4231 15.0109 17.0703 14.9639C16.7152 14.9151 16.3398 14.843 15.9434 14.7463C15.5471 14.6515 15.1708 14.5185 14.8164 14.3497L17.9853 1.23927L20.8236 0.806152L19.689 5.45859C19.9319 5.35081 20.1766 5.26731 20.4208 5.20651C20.6653 5.14661 20.9276 5.11544 21.2081 5.11544ZM18.8273 12.8359C19.2547 12.8359 19.6575 12.7324 20.0359 12.5291C20.4154 12.3256 20.7429 12.0508 21.0172 11.7085C21.2915 11.3647 21.5086 10.9775 21.6669 10.5448C21.8253 10.1121 21.9053 9.66077 21.9053 9.19114C21.9053 8.61418 21.8074 8.16414 21.6122 7.83881C21.417 7.51481 21.0559 7.35181 20.5314 7.35181C20.3595 7.35181 20.1381 7.38409 19.8636 7.44177C19.5881 7.503 19.3416 7.63016 19.1206 7.82144L17.9125 12.7622C17.9853 12.7749 18.0498 12.787 18.1047 12.7983C18.1586 12.8106 18.218 12.8193 18.2773 12.8253C18.3399 12.8322 18.4116 12.8357 18.4983 12.8357C18.5849 12.8357 18.6932 12.8359 18.8273 12.8359Z" fill="#4D4D4D"/>
<path d="M27.5586 14.8019H24.8477L27.1371 5.31643H29.8666L27.5586 14.8019ZM28.8778 4.16073C28.4994 4.16073 28.1563 4.04983 27.8519 3.8276C27.545 3.6067 27.3931 3.26667 27.3931 2.8084C27.3931 2.55632 27.4451 2.31984 27.5482 2.09671C27.6529 1.87403 27.7897 1.68231 27.9612 1.51931C28.1324 1.35764 28.3307 1.22849 28.556 1.13117C28.7826 1.03542 29.0237 0.987549 29.2806 0.987549C29.6587 0.987549 30 1.09844 30.3055 1.32068C30.6099 1.54402 30.763 1.88406 30.763 2.33988C30.763 2.59284 30.7112 2.83022 30.6072 3.0529C30.5039 3.27558 30.367 3.4673 30.1956 3.6303C30.0258 3.79219 29.8256 3.9209 29.6008 4.01732C29.374 4.11463 29.1338 4.16073 28.8778 4.16073Z" fill="#4D4D4D"/>
<path d="M32.2422 2.95313L35.0816 2.52002L34.3843 5.31598H37.4252L36.8761 7.5156H33.8535L33.0484 10.8335C32.9742 11.1101 32.9322 11.3684 32.9204 11.6084C32.9071 11.8496 32.938 12.0567 33.0113 12.2311C33.0841 12.4059 33.2151 12.5406 33.4051 12.6359C33.5941 12.7328 33.8648 12.7815 34.2199 12.7815C34.5123 12.7815 34.7973 12.7541 35.0727 12.6998C35.3466 12.6464 35.6241 12.572 35.905 12.4747L36.1072 14.5313C35.7408 14.6636 35.3441 14.7774 34.9167 14.8732C34.4886 14.9702 33.9818 15.017 33.396 15.017C32.5538 15.017 31.9009 14.8939 31.4357 14.6487C30.9712 14.4017 30.6428 14.0644 30.4462 13.6373C30.2524 13.2117 30.1658 12.7212 30.19 12.1685C30.2151 11.6145 30.2999 11.0322 30.4462 10.4189L32.2422 2.95313Z" fill="#4D4D4D"/>
<path d="M37.3062 11.0142C37.3062 10.1972 37.4405 9.42673 37.7089 8.70547C37.9769 7.98354 38.363 7.35225 38.8639 6.81047C39.3631 6.27136 39.9712 5.84426 40.687 5.53073C41.3994 5.21898 42.197 5.06177 43.0761 5.06177C43.6264 5.06177 44.1178 5.11299 44.5502 5.21564C44.9844 5.31919 45.3773 5.45302 45.7326 5.62092L44.7976 7.7141C44.5534 7.61657 44.2999 7.53061 44.0377 7.45267C43.7754 7.37318 43.4552 7.33488 43.0763 7.33488C42.1715 7.33488 41.4561 7.64195 40.9238 8.2541C40.3934 8.86669 40.1263 9.69127 40.1263 10.7256C40.1263 11.3386 40.2607 11.8343 40.5303 12.2136C40.7985 12.5928 41.294 12.7814 42.0134 12.7814C42.3685 12.7814 42.7111 12.7449 43.0393 12.6736C43.3699 12.6015 43.6619 12.5106 43.919 12.4033L44.1214 14.549C43.7786 14.68 43.4004 14.7982 42.9857 14.9017C42.57 15.0017 42.0751 15.0536 41.5014 15.0536C40.744 15.0536 40.1028 14.9445 39.5784 14.7296C39.0537 14.5114 38.6201 14.2217 38.2786 13.8547C37.9353 13.4868 37.6888 13.0573 37.5364 12.5643C37.384 12.0717 37.3062 11.5542 37.3062 11.0142Z" fill="#4D4D4D"/>
<path d="M49.3483 15.0536C48.7013 15.0536 48.1393 14.9565 47.6625 14.7643C47.1871 14.5722 46.7934 14.3025 46.482 13.9529C46.1701 13.6051 45.9367 13.1929 45.7768 12.7179C45.6169 12.2432 45.54 11.7174 45.54 11.1414C45.54 10.4188 45.6579 9.69639 45.896 8.97602C46.133 8.2541 46.4847 7.60544 46.9501 7.02892C47.4119 6.45151 47.9816 5.97943 48.6524 5.61134C49.3225 5.2457 50.0933 5.06177 50.959 5.06177C51.5943 5.06177 52.1533 5.15908 52.6366 5.35125C53.1177 5.54297 53.5139 5.81487 53.8271 6.16269C54.137 6.5123 54.3724 6.9227 54.5307 7.39834C54.6901 7.87221 54.7689 8.39928 54.7689 8.9758C54.7689 9.69617 54.6526 10.4185 54.4219 11.1411C54.191 11.8602 53.8484 12.5104 53.3961 13.0882C52.9447 13.6648 52.3802 14.1366 51.7022 14.5031C51.025 14.8697 50.2398 15.0536 49.3483 15.0536ZM50.7032 7.3351C50.3013 7.3351 49.946 7.45 49.6419 7.67691C49.3365 7.90649 49.0801 8.19509 48.8734 8.54314C48.6644 8.89274 48.5095 9.27397 48.4048 9.68838C48.301 10.1037 48.2501 10.4963 48.2501 10.8692C48.2501 11.4711 48.3487 11.9399 48.5425 12.2772C48.739 12.6128 49.0921 12.7816 49.6052 12.7816C50.0085 12.7816 50.362 12.6676 50.6679 12.4382C50.9714 12.2104 51.2281 11.9216 51.4364 11.5729C51.644 11.2251 51.8003 10.8427 51.905 10.4277C52.0075 10.0137 52.0597 9.6189 52.0597 9.24658C52.0597 8.64624 51.9616 8.17638 51.7659 7.83947C51.5705 7.50389 51.2159 7.3351 50.7032 7.3351Z" fill="#4D4D4D"/>
<path d="M57.7235 14.8019H55.0103L57.2996 5.31643H60.0305L57.7235 14.8019ZM59.0406 4.16073C58.6625 4.16073 58.3196 4.04983 58.0157 3.8276C57.7104 3.6067 57.557 3.26667 57.557 2.8084C57.557 2.55632 57.6097 2.31984 57.7131 2.09671C57.8164 1.87403 57.9541 1.68231 58.1256 1.51931C58.2959 1.35764 58.496 1.22849 58.7208 1.13117C58.9461 1.03542 59.1872 0.987549 59.4432 0.987549C59.8222 0.987549 60.1646 1.09844 60.4695 1.32068C60.7746 1.54402 60.9286 1.88406 60.9286 2.33988C60.9286 2.59284 60.8738 2.83022 60.7714 3.0529C60.6689 3.27558 60.5312 3.4673 60.3605 3.6303C60.1886 3.79219 59.9909 3.9209 59.7657 4.01732C59.5386 4.11463 59.298 4.16073 59.0406 4.16073Z" fill="#4D4D4D"/>
<path d="M61.9841 5.74766C62.1899 5.68843 62.4197 5.61717 62.6696 5.53968C62.9204 5.46219 63.2006 5.39004 63.5136 5.32502C63.8232 5.25799 64.1726 5.20366 64.5569 5.16157C64.9411 5.11859 65.3789 5.09766 65.8654 5.09766C67.2952 5.09766 68.2808 5.50761 68.8249 6.32507C69.3686 7.14252 69.4627 8.26126 69.1099 9.67928L67.8628 14.8009H65.134L66.3426 9.78706C66.4163 9.47398 66.4742 9.17135 66.517 8.87563C66.5602 8.58259 66.5577 8.32428 66.5072 8.10071C66.4591 7.87982 66.3455 7.699 66.1693 7.55893C65.9905 7.42109 65.7202 7.35184 65.3536 7.35184C65.0001 7.35184 64.6405 7.38925 64.2735 7.4614L62.4965 14.8007H59.7666L61.9841 5.74766Z" fill="#4D4D4D"/>
</svg>
