<svg width="24" height="24" viewBox="0 0 24 24" fill="none" xmlns="http://www.w3.org/2000/svg">
<rect width="24" height="24" fill="white"/>
<path fill-rule="evenodd" clip-rule="evenodd" d="M12 24C18.6274 24 24 18.6274 24 12C24 5.37258 18.6274 0 12 0C5.37258 0 0 5.37258 0 12C0 18.6274 5.37258 24 12 24Z" fill="#F7931A"/>
<path fill-rule="evenodd" clip-rule="evenodd" d="M17.4531 10.5764C17.6926 8.97906 16.4716 8.12074 14.8023 7.54752L15.3439 5.38296L14.0219 5.05434L13.4946 7.16188C13.1474 7.0756 12.7903 6.99382 12.4348 6.91354L12.9658 4.79249L11.6446 4.46387L11.1022 6.62768L8.43568 5.96968L8.0839 7.37646C8.0839 7.37646 9.06466 7.60004 9.04432 7.6143C9.57989 7.74785 9.67706 8.10048 9.66049 8.38034L8.17655 14.3083C8.11102 14.4696 7.94455 14.7127 7.57017 14.6204C7.58373 14.6392 6.609 14.3818 6.609 14.3818L5.95215 15.8899L8.61495 16.5592L8.06808 18.7477L9.38856 19.0764L9.93092 16.911C10.2917 17.0078 10.642 17.0986 10.9847 17.1834L10.4446 19.3382L11.7666 19.6668L12.3143 17.4828C14.5695 17.9074 16.2652 17.7364 16.9785 15.7046C17.3542 14.2927 16.9499 13.1251 15.7635 12.5099C16.6282 12.3118 17.2791 11.7461 17.4531 10.5764ZM14.8407 10.5528C14.4992 11.9149 12.5396 11.3954 11.6391 11.1566L11.6391 11.1566C11.5565 11.1347 11.4828 11.1152 11.4201 11.0997L12.0785 8.46922C12.1545 8.48816 12.2476 8.50875 12.3532 8.5321L12.3533 8.53211C13.2854 8.7382 15.1892 9.15911 14.8407 10.5528ZM14.4317 14.7959C14.0563 16.2968 11.6974 15.6755 10.6188 15.3914C10.522 15.3659 10.4356 15.3431 10.3618 15.3248L11.0879 12.4257C11.178 12.4481 11.288 12.4727 11.4126 12.5006L11.4128 12.5006C12.5287 12.75 14.8159 13.2612 14.4317 14.7959Z" fill="white"/>
</svg>
