<svg width="32" height="32" viewBox="0 0 32 32" fill="none" xmlns="http://www.w3.org/2000/svg">
<g clip-path="url(#clip0)">
<circle cx="16" cy="14.6667" r="12" fill="white"/>
<path d="M4.7735 28.2613H23.7855L22.8775 25.3213C23.0122 25.4387 30.6668 32 30.6668 32V3.3C30.5762 1.516 29.0402 0 27.1362 0L4.78016 0.004C2.8775 0.004 1.3335 1.52267 1.3335 3.30667V24.96C1.3335 26.8413 2.87483 28.2613 4.7735 28.2613ZM18.8375 7.57733L18.7935 7.59333L18.8095 7.57733H18.8375ZM8.66283 9.26933C11.1068 7.49067 13.3722 7.576 13.3722 7.576L13.5548 7.756C10.5642 8.46933 9.20816 9.80533 9.20816 9.80533C9.34683 9.776 15.3855 6.292 22.7028 9.89333C22.7028 9.89333 21.3442 8.644 18.5375 7.844L18.7855 7.6C19.1735 7.60133 21.2268 7.67333 23.4242 9.28C23.4242 9.28 25.8828 13.48 25.8828 18.64C25.8015 18.5413 24.3575 20.8613 20.6415 20.9413C20.6415 20.9413 20.0122 20.2293 19.5642 19.608C21.7375 18.984 22.5508 17.736 22.5508 17.736C18.3202 20.4 14.6122 19.984 10.1762 18.184C10.1348 18.184 10.1162 18.1653 10.0948 18.144V18.136C10.0735 18.116 10.0548 18.096 10.0135 18.096H9.9335C9.6615 17.9173 9.48016 17.8293 9.48016 17.8293C9.48016 17.8293 10.2922 19.0773 12.3788 19.7013C11.8308 20.3267 11.2882 21.0373 11.2882 21.0373C7.5735 20.9493 6.21883 18.6293 6.21883 18.6293C6.21883 13.4613 8.66283 9.26933 8.66283 9.26933Z" fill="#5C6BC0"/>
<path d="M19.0774 17.0278C20.0254 17.0278 20.7974 16.2278 20.7974 15.2412C20.7974 14.2612 20.0294 13.4612 19.0774 13.4612V13.4652C18.1334 13.4652 17.3601 14.2625 17.3574 15.2492C17.3574 16.2278 18.1294 17.0278 19.0774 17.0278Z" fill="#5C6BC0"/>
<path d="M12.9202 17.0278C13.8682 17.0278 14.6402 16.2278 14.6402 15.2412C14.6402 14.2612 13.8735 13.4612 12.9255 13.4612L12.9202 13.4652C11.9722 13.4652 11.2002 14.2625 11.2002 15.2492C11.2002 16.2278 11.9722 17.0278 12.9202 17.0278Z" fill="#5C6BC0"/>
</g>
<defs>
<clipPath id="clip0">
<rect width="32" height="32" fill="white"/>
</clipPath>
</defs>
</svg>
