<svg width="95" height="22" viewBox="0 0 95 22" fill="none" xmlns="http://www.w3.org/2000/svg">
<path d="M7.21724 0L0.0698242 11.2039L7.21724 8.13521V0Z" fill="#8A92B2"/>
<path d="M7.21724 8.13525L0.0698242 11.2039L7.21724 15.1959V8.13525Z" fill="#62688F"/>
<path d="M14.366 11.2039L7.21729 0V8.13521L14.366 11.2039Z" fill="#62688F"/>
<path d="M7.21729 15.1959L14.366 11.2039L7.21729 8.13525V15.1959Z" fill="#454A75"/>
<path d="M0.0698242 12.4849L7.21724 21.9999V16.4743L0.0698242 12.4849Z" fill="#8A92B2"/>
<path d="M7.21729 16.4743V21.9999L14.37 12.4849L7.21729 16.4743Z" fill="#62688F"/>
<path d="M26.1344 8.004L25.9242 10.6337H30.0482C30.4148 10.6337 30.6897 10.7134 30.873 10.8728C31.0671 11.0215 31.1641 11.2393 31.1641 11.5262C31.1641 12.2169 30.749 12.5622 29.9188 12.5622H25.7786L25.5522 15.3831H29.9997C30.3555 15.3831 30.6304 15.4628 30.8245 15.6222C31.0186 15.7816 31.1156 16.0047 31.1156 16.2916C31.1156 16.9716 30.6897 17.3116 29.838 17.3116H24.1128C23.7355 17.3116 23.4497 17.2107 23.2557 17.0088C23.0724 16.8069 22.9969 16.52 23.0293 16.1481L23.7408 7.23899C23.7732 6.86711 23.8972 6.58023 24.1128 6.37835C24.3392 6.17648 24.6411 6.07554 25.0185 6.07554H30.7436C31.1102 6.07554 31.3852 6.15523 31.5684 6.3146C31.7625 6.47398 31.8596 6.69179 31.8596 6.96805C31.8596 7.65868 31.4391 8.004 30.5981 8.004H26.1344Z" fill="#4D4D4D"/>
<path d="M35.6403 14.2356L35.6241 14.4906C35.6241 15.2769 35.9691 15.67 36.6592 15.67C36.7778 15.67 36.8964 15.6647 37.015 15.6541C37.1336 15.6328 37.2414 15.6222 37.3384 15.6222C37.5002 15.6222 37.6295 15.6966 37.7266 15.8453C37.8344 15.9835 37.8883 16.1641 37.8883 16.3872C37.8883 16.7697 37.7535 17.0407 37.484 17.2C37.2252 17.3594 36.7616 17.4391 36.0931 17.4391C35.1551 17.4391 34.4327 17.2 33.926 16.7219C33.43 16.2438 33.1821 15.5585 33.1821 14.6659C33.1821 14.4747 33.1874 14.3313 33.1982 14.2356L33.4408 11.2872H32.8101C32.4758 11.2872 32.2171 11.2128 32.0338 11.064C31.8613 10.9153 31.775 10.7028 31.775 10.4265C31.775 9.79964 32.1632 9.4862 32.9395 9.4862H33.5864L33.6834 8.24306C33.7158 7.89243 33.8505 7.61618 34.0877 7.4143C34.3249 7.21243 34.6322 7.11149 35.0096 7.11149C35.3869 7.11149 35.6726 7.21243 35.8667 7.4143C36.0716 7.61618 36.1578 7.89243 36.1255 8.24306L36.0284 9.4862H37.1605C37.484 9.4862 37.732 9.56058 37.9045 9.70933C38.0878 9.85808 38.1794 10.0653 38.1794 10.3309C38.1794 10.9684 37.7967 11.2872 37.0312 11.2872H35.8829L35.6403 14.2356Z" fill="#4D4D4D"/>
<path d="M44.0779 9.29495C44.962 9.29495 45.6305 9.53933 46.0833 10.0281C46.5362 10.5062 46.7626 11.2128 46.7626 12.1478C46.7626 12.3709 46.7572 12.5409 46.7464 12.6578L46.4553 16.2756C46.423 16.6263 46.2882 16.9025 46.051 17.1044C45.8246 17.3063 45.5227 17.4072 45.1453 17.4072C44.7679 17.4072 44.4768 17.3063 44.272 17.1044C44.0671 16.9025 43.9809 16.6263 44.0132 16.2756L44.3043 12.7534C44.3475 12.2328 44.2612 11.8397 44.0456 11.574C43.8407 11.3084 43.5173 11.1756 43.0752 11.1756C42.5685 11.1756 42.1695 11.335 41.8784 11.6537C41.5873 11.9619 41.4202 12.3869 41.3771 12.9287L41.1021 16.2756C41.0806 16.6263 40.9512 16.9025 40.714 17.1044C40.4876 17.3063 40.1857 17.4072 39.8083 17.4072C39.431 17.4072 39.1345 17.3063 38.9188 17.1044C38.714 16.9025 38.6277 16.6263 38.6601 16.2756L39.3878 7.09555C39.4094 6.76617 39.5442 6.50054 39.7921 6.29867C40.0401 6.09679 40.3528 5.99585 40.7302 5.99585C41.086 5.99585 41.3609 6.09148 41.555 6.28273C41.7598 6.47398 41.8515 6.72898 41.8299 7.04774L41.5711 10.3468C41.8515 10.0175 42.2073 9.76245 42.6385 9.58183C43.0698 9.39057 43.5496 9.29495 44.0779 9.29495Z" fill="#4D4D4D"/>
<path d="M55.6855 13.12C55.6855 13.3537 55.6208 13.5344 55.4914 13.6619C55.362 13.7894 55.1895 13.8531 54.9739 13.8531H50.4617C50.5587 15.0431 51.2218 15.6381 52.451 15.6381C52.796 15.6381 53.0979 15.601 53.3566 15.5266C53.6154 15.4522 53.9011 15.3353 54.2138 15.1759C54.3647 15.1016 54.5103 15.0644 54.6504 15.0644C54.8553 15.0644 55.017 15.1441 55.1356 15.3035C55.265 15.4628 55.3297 15.6541 55.3297 15.8772C55.3297 16.0578 55.2866 16.2331 55.2003 16.4031C55.1248 16.5625 55.0009 16.6953 54.8283 16.8016C54.5372 16.9928 54.1599 17.1469 53.6963 17.2638C53.2326 17.3807 52.7582 17.4391 52.2731 17.4391C51.4429 17.4391 50.7151 17.2797 50.0897 16.961C49.4644 16.6422 48.9792 16.196 48.6342 15.6222C48.2892 15.0378 48.1167 14.3631 48.1167 13.5981C48.1167 12.7694 48.2892 12.0309 48.6342 11.3828C48.9792 10.724 49.4536 10.214 50.0574 9.85277C50.672 9.48089 51.3674 9.29495 52.1437 9.29495C53.2758 9.29495 54.1491 9.62964 54.7637 10.299C55.3782 10.9684 55.6855 11.9087 55.6855 13.12ZM52.2245 10.9525C51.265 10.9525 50.6935 11.5209 50.5102 12.6578H53.6477C53.6477 12.1053 53.5237 11.6856 53.2758 11.3987C53.0386 11.1012 52.6882 10.9525 52.2245 10.9525Z" fill="#4D4D4D"/>
<path d="M62.2549 9.32682C62.5568 9.30557 62.794 9.37995 62.9665 9.54995C63.139 9.71995 63.2091 9.96433 63.1768 10.2831C63.1444 10.6443 63.0366 10.91 62.8533 11.08C62.67 11.2393 62.3573 11.3403 61.9153 11.3828L61.4786 11.4306C60.8209 11.505 60.3519 11.6803 60.0716 11.9565C59.802 12.2222 59.6403 12.6472 59.5864 13.2316L59.3438 16.2756C59.3115 16.6475 59.1713 16.9291 58.9233 17.1203C58.6861 17.3116 58.395 17.4072 58.05 17.4072C57.6942 17.4072 57.4031 17.3116 57.1767 17.1203C56.961 16.9291 56.8694 16.6475 56.9017 16.2756L57.3707 10.4265C57.4031 10.0759 57.5433 9.80495 57.7912 9.6137C58.05 9.42245 58.3465 9.32682 58.6807 9.32682C59.0042 9.32682 59.263 9.42245 59.457 9.6137C59.6511 9.79433 59.7374 10.0493 59.7158 10.3787L59.6996 10.57C59.9907 10.1981 60.3465 9.9112 60.767 9.70933C61.1875 9.49682 61.6242 9.37464 62.077 9.34276L62.2549 9.32682Z" fill="#4D4D4D"/>
<path d="M70.6421 13.12C70.6421 13.3537 70.5774 13.5344 70.448 13.6619C70.3186 13.7894 70.1461 13.8531 69.9305 13.8531H65.4183C65.5154 15.0431 66.1784 15.6381 67.4076 15.6381C67.7526 15.6381 68.0545 15.601 68.3132 15.5266C68.572 15.4522 68.8577 15.3353 69.1704 15.1759C69.3213 15.1016 69.4669 15.0644 69.607 15.0644C69.8119 15.0644 69.9736 15.1441 70.0922 15.3035C70.2216 15.4628 70.2863 15.6541 70.2863 15.8772C70.2863 16.0578 70.2432 16.2331 70.1569 16.4031C70.0814 16.5625 69.9575 16.6953 69.7849 16.8016C69.4938 16.9928 69.1165 17.1469 68.6529 17.2638C68.1892 17.3807 67.7148 17.4391 67.2297 17.4391C66.3995 17.4391 65.6717 17.2797 65.0463 16.961C64.421 16.6422 63.9358 16.196 63.5908 15.6222C63.2458 15.0378 63.0733 14.3631 63.0733 13.5981C63.0733 12.7694 63.2458 12.0309 63.5908 11.3828C63.9358 10.724 64.4102 10.214 65.014 9.85277C65.6286 9.48089 66.324 9.29495 67.1003 9.29495C68.2324 9.29495 69.1057 9.62964 69.7203 10.299C70.3348 10.9684 70.6421 11.9087 70.6421 13.12ZM67.1811 10.9525C66.2216 10.9525 65.6501 11.5209 65.4668 12.6578H68.6043C68.6043 12.1053 68.4803 11.6856 68.2324 11.3987C67.9952 11.1012 67.6448 10.9525 67.1811 10.9525Z" fill="#4D4D4D"/>
<path d="M78.845 9.32682C79.2223 9.32682 79.508 9.42776 79.7021 9.62964C79.907 9.83152 79.9932 10.1078 79.9609 10.4584L79.4919 16.3075C79.4703 16.6369 79.3355 16.9025 79.0875 17.1044C78.8503 17.3063 78.5485 17.4072 78.1819 17.4072C77.8369 17.4072 77.5673 17.3116 77.3732 17.1203C77.1792 16.9291 77.0875 16.6741 77.0983 16.3553V16.3394C76.818 16.69 76.4622 16.961 76.0309 17.1522C75.5996 17.3435 75.1252 17.4391 74.6077 17.4391C73.7452 17.4391 73.0875 17.2 72.6346 16.7219C72.1818 16.2438 71.9554 15.5478 71.9554 14.6341C71.9554 14.4109 71.9608 14.2409 71.9715 14.1241L72.2627 10.4584C72.295 10.1078 72.4298 9.83152 72.667 9.62964C72.915 9.42776 73.2276 9.32682 73.605 9.32682C73.9824 9.32682 74.2681 9.42776 74.4621 9.62964C74.6562 9.83152 74.7371 10.1078 74.7047 10.4584L74.4136 13.9806C74.3705 14.5013 74.4514 14.8944 74.6562 15.16C74.8611 15.4256 75.1791 15.5585 75.6104 15.5585C76.0848 15.5585 76.4622 15.4044 76.7425 15.0963C77.0336 14.7775 77.2007 14.3525 77.2439 13.8212L77.5188 10.4584C77.5511 10.1078 77.6859 9.83152 77.9231 9.62964C78.1603 9.42776 78.4676 9.32682 78.845 9.32682Z" fill="#4D4D4D"/>
<path d="M91.6192 9.29495C92.4494 9.29495 93.0802 9.53401 93.5115 10.0121C93.9427 10.4903 94.1584 11.1915 94.1584 12.1159C94.1584 12.3497 94.153 12.525 94.1422 12.6419L93.8511 16.2756C93.8187 16.6582 93.684 16.945 93.4468 17.1363C93.2096 17.3169 92.9131 17.4072 92.5573 17.4072C92.2015 17.4072 91.9104 17.3116 91.6839 17.1203C91.4683 16.9291 91.3767 16.6475 91.409 16.2756L91.7001 12.7056C91.7109 12.6312 91.7163 12.525 91.7163 12.3869C91.7163 11.5793 91.3605 11.1756 90.6489 11.1756C89.7216 11.1756 89.2041 11.8025 89.0963 13.0562L88.8375 16.2756C88.8052 16.6475 88.665 16.9291 88.4171 17.1203C88.1799 17.3116 87.8887 17.4072 87.5437 17.4072C87.1879 17.4072 86.8968 17.3116 86.6704 17.1203C86.4548 16.9291 86.3631 16.6475 86.3955 16.2756L86.6866 12.7215C86.6974 12.6472 86.7027 12.5409 86.7027 12.4028C86.7027 11.5847 86.3469 11.1756 85.6353 11.1756C84.7081 11.1756 84.1906 11.8025 84.0828 13.0562L83.824 16.2756C83.7917 16.6475 83.6515 16.9291 83.4035 17.1203C83.1663 17.3116 82.8752 17.4072 82.5302 17.4072C82.1744 17.4072 81.8833 17.3116 81.6569 17.1203C81.4412 16.9291 81.3496 16.6475 81.3819 16.2756L81.8509 10.4265C81.8833 10.0759 82.0288 9.80495 82.2876 9.6137C82.5464 9.42245 82.8482 9.32682 83.1933 9.32682C83.5059 9.32682 83.7593 9.41714 83.9534 9.59776C84.1582 9.77839 84.2553 10.0281 84.2445 10.3468C84.5572 9.99621 84.9076 9.73589 85.2957 9.56589C85.6946 9.38526 86.1475 9.29495 86.6542 9.29495C87.1933 9.29495 87.6569 9.40651 88.0451 9.62964C88.4332 9.85277 88.7243 10.1768 88.9184 10.6018C89.2311 10.1768 89.6192 9.85277 90.0828 9.62964C90.5465 9.40651 91.0586 9.29495 91.6192 9.29495Z" fill="#4D4D4D"/>
</svg>
