<svg width="32" height="32" viewBox="0 0 32 32" fill="none" xmlns="http://www.w3.org/2000/svg">
<g clip-path="url(#clip0)">
<path d="M0.0180664 10.7333C0.0180664 6.93673 0.0180664 5.03843 0.768644 3.5935C1.40115 2.37588 2.39395 1.38308 3.61157 0.750577C5.05649 0 6.9548 0 10.7514 0H21.2847C25.0813 0 26.9796 0 28.4246 0.750577C29.6422 1.38308 30.635 2.37588 31.2675 3.5935C32.0181 5.03843 32.0181 6.93673 32.0181 10.7333V21.2667C32.0181 25.0633 32.0181 26.9616 31.2675 28.4065C30.635 29.6241 29.6422 30.6169 28.4246 31.2494C26.9796 32 25.0813 32 21.2847 32H10.7514C6.9548 32 5.05649 32 3.61157 31.2494C2.39395 30.6169 1.40115 29.6241 0.768644 28.4065C0.0180664 26.9616 0.0180664 25.0633 0.0180664 21.2667V10.7333Z" fill="url(#paint0_radial)"/>
<path d="M0.0180664 10.7333C0.0180664 6.93673 0.0180664 5.03843 0.768644 3.5935C1.40115 2.37588 2.39395 1.38308 3.61157 0.750577C5.05649 0 6.9548 0 10.7514 0H21.2847C25.0813 0 26.9796 0 28.4246 0.750577C29.6422 1.38308 30.635 2.37588 31.2675 3.5935C32.0181 5.03843 32.0181 6.93673 32.0181 10.7333V21.2667C32.0181 25.0633 32.0181 26.9616 31.2675 28.4065C30.635 29.6241 29.6422 30.6169 28.4246 31.2494C26.9796 32 25.0813 32 21.2847 32H10.7514C6.9548 32 5.05649 32 3.61157 31.2494C2.39395 30.6169 1.40115 29.6241 0.768644 28.4065C0.0180664 26.9616 0.0180664 25.0633 0.0180664 21.2667V10.7333Z" fill="url(#paint1_radial)"/>
<path d="M16.0007 4.36328C12.8406 4.36328 12.444 4.3771 11.2028 4.43358C9.96408 4.49031 9.11853 4.68643 8.37868 4.97419C7.61337 5.2714 6.96418 5.66898 6.31741 6.31601C5.67015 6.9628 5.27259 7.61201 4.97442 8.3771C4.68594 9.11722 4.48958 9.96304 4.43383 11.2013C4.37831 12.4426 4.36377 12.8394 4.36377 15.9996C4.36377 19.1599 4.37783 19.5553 4.43407 20.7965C4.49104 22.0353 4.68715 22.8809 4.97466 23.6207C5.27211 24.3861 5.66967 25.0353 6.31668 25.6821C6.96321 26.3293 7.6124 26.7279 8.37722 27.0251C9.11756 27.3129 9.96336 27.509 11.2019 27.5657C12.443 27.6222 12.8394 27.636 15.9993 27.636C19.1597 27.636 19.5551 27.6222 20.7962 27.5657C22.035 27.509 22.8815 27.3129 23.6218 27.0251C24.3869 26.7279 25.0351 26.3293 25.6817 25.6821C26.3289 25.0353 26.7265 24.3861 27.0247 23.621C27.3107 22.8809 27.5071 22.035 27.5652 20.7967C27.621 19.5555 27.6355 19.1599 27.6355 15.9996C27.6355 12.8394 27.621 12.4428 27.5652 11.2016C27.5071 9.9628 27.3107 9.11722 27.0247 8.37734C26.7265 7.61201 26.3289 6.9628 25.6817 6.31601C25.0344 5.66874 24.3872 5.27116 23.6211 4.97419C22.8793 4.68643 22.0333 4.49031 20.7945 4.43358C19.5534 4.3771 19.1582 4.36328 15.9971 4.36328H16.0007ZM14.9569 6.46025C15.2667 6.45977 15.6124 6.46025 16.0007 6.46025C19.1076 6.46025 19.4758 6.4714 20.7027 6.52716C21.8372 6.57904 22.4529 6.76861 22.8631 6.92789C23.4061 7.1388 23.7932 7.39092 24.2003 7.79819C24.6075 8.20546 24.8596 8.59334 25.071 9.13637C25.2303 9.54607 25.4201 10.1618 25.4717 11.2964C25.5275 12.523 25.5396 12.8915 25.5396 15.997C25.5396 19.1024 25.5275 19.4709 25.4717 20.6976C25.4199 21.8321 25.2303 22.4479 25.071 22.8576C24.8601 23.4006 24.6075 23.7873 24.2003 24.1943C23.793 24.6016 23.4063 24.8537 22.8631 25.0646C22.4534 25.2246 21.8372 25.4137 20.7027 25.4656C19.476 25.5213 19.1076 25.5335 16.0007 25.5335C12.8937 25.5335 12.5255 25.5213 11.2988 25.4656C10.1643 25.4132 9.54858 25.2236 9.13817 25.0644C8.59516 24.8535 8.20729 24.6013 7.80003 24.1941C7.39277 23.7868 7.14065 23.3999 6.92927 22.8566C6.77 22.4469 6.58019 21.8312 6.52855 20.6966C6.4728 19.4699 6.46164 19.1015 6.46164 15.9941C6.46164 12.8867 6.4728 12.5201 6.52855 11.2935C6.58043 10.1589 6.77 9.54316 6.92927 9.13298C7.14017 8.58995 7.39277 8.20207 7.80003 7.7948C8.20729 7.38752 8.59516 7.1354 9.13817 6.92401C9.54834 6.76401 10.1643 6.57492 11.2988 6.5228C12.3723 6.47431 12.7882 6.45977 14.9569 6.45734V6.46025ZM22.212 8.39237C21.4411 8.39237 20.8156 9.0171 20.8156 9.78825C20.8156 10.5592 21.4411 11.1846 22.212 11.1846C22.9828 11.1846 23.6083 10.5592 23.6083 9.78825C23.6083 9.01734 22.9828 8.39189 22.212 8.39189V8.39237ZM16.0007 10.0239C12.7007 10.0239 10.0252 12.6995 10.0252 15.9996C10.0252 19.2998 12.7007 21.9742 16.0007 21.9742C19.3008 21.9742 21.9754 19.2998 21.9754 15.9996C21.9754 12.6995 19.3005 10.0239 16.0005 10.0239H16.0007ZM16.0007 12.1209C18.1427 12.1209 19.8794 13.8573 19.8794 15.9996C19.8794 18.1417 18.1427 19.8784 16.0007 19.8784C13.8585 19.8784 12.1221 18.1417 12.1221 15.9996C12.1221 13.8573 13.8585 12.1209 16.0007 12.1209Z" fill="white"/>
</g>
<defs>
<radialGradient id="paint0_radial" cx="0" cy="0" r="1" gradientUnits="userSpaceOnUse" gradientTransform="translate(8.51811 34.4647) rotate(-90) scale(31.7144 29.4969)">
<stop stop-color="#FFDD55"/>
<stop offset="0.1" stop-color="#FFDD55"/>
<stop offset="0.5" stop-color="#FF543E"/>
<stop offset="1" stop-color="#C837AB"/>
</radialGradient>
<radialGradient id="paint1_radial" cx="0" cy="0" r="1" gradientUnits="userSpaceOnUse" gradientTransform="translate(-5.3421 2.30523) rotate(78.6806) scale(14.1765 58.4359)">
<stop stop-color="#3771C8"/>
<stop offset="0.128" stop-color="#3771C8"/>
<stop offset="1" stop-color="#6600FF" stop-opacity="0"/>
</radialGradient>
<clipPath id="clip0">
<rect width="32" height="32" fill="white"/>
</clipPath>
</defs>
</svg>
