<svg width="16" height="16" viewBox="0 0 16 16" fill="none" xmlns="http://www.w3.org/2000/svg">
<path fill-rule="evenodd" clip-rule="evenodd" d="M5.33325 6.00016C5.33325 3.42283 7.42259 1.3335 9.99992 1.3335C12.5772 1.3335 14.6666 3.42283 14.6666 6.00016C14.6666 8.57749 12.5772 10.6668 9.99992 10.6668H8.66659V12.0002H7.33325V13.3335H5.99992V14.6668H1.33325V11.0574L5.43192 6.95868C5.36655 6.64581 5.33325 6.32503 5.33325 6.00016ZM7.33325 9.3335H9.99992C11.8409 9.3335 13.3333 7.84111 13.3333 6.00016C13.3333 4.15921 11.8409 2.66683 9.99992 2.66683C8.15897 2.66683 6.66658 4.15921 6.66658 6.00016C6.66658 6.33258 6.71504 6.65775 6.8093 6.96874L6.92518 7.35105L2.66659 11.6096V13.3335H4.66658V12.0002H5.99992V10.6668H7.33325V9.3335ZM8.66659 6.00016C8.66659 6.73654 9.26354 7.3335 9.99992 7.3335C10.7363 7.3335 11.3333 6.73654 11.3333 6.00016C11.3333 5.26378 10.7363 4.66683 9.99992 4.66683C9.26354 4.66683 8.66659 5.26378 8.66659 6.00016Z" fill="white"/>
</svg>
