<svg width="62" height="12" viewBox="0 0 62 12" fill="none" xmlns="http://www.w3.org/2000/svg">
<path fill-rule="evenodd" clip-rule="evenodd" d="M57.2662 0.141113C58.8087 0.141113 60.0085 0.429355 60.7969 1.00584C61.551 1.54629 61.9966 2.44704 61.9966 3.38383C62.0309 4.21252 61.7909 5.00518 61.3453 5.65373C60.8654 6.26624 60.1799 6.66257 59.46 6.80669L59.0829 6.87875L60.694 11.3465H57.1976L55.6551 5.86991L54.6953 11.3465H21.7538L23.262 2.66322H21.3082L19.7999 11.3465H7.2883L4.95737 4.28458L3.75763 11.3465H0.26123L2.2151 0.141113H5.84861L8.2481 7.02287L9.44784 0.141113H30.4605L30.0149 2.66322H26.6556L26.3128 4.60885H29.535L29.1579 6.80669H25.9015L25.5587 8.78835H30.9404L32.4486 0.141113H35.9793L34.5396 8.35599H36.9391L38.3788 0.141113H41.9095L40.4698 8.35599H42.9378L44.3775 0.141113H51.1304L50.6847 2.66322H47.3597L47.017 4.60885H50.2391L49.8621 6.80669H46.6399L46.2971 8.78835H51.6445L53.1528 0.141113H57.2662ZM57.9178 5.04119C57.4379 5.32944 56.8893 5.47356 56.3751 5.43753H55.6895L56.2037 2.41099H56.6836C57.1293 2.37496 57.575 2.48305 57.9864 2.69923C58.3292 2.91541 58.5006 3.34778 58.5006 3.74411C58.5349 4.28456 58.2949 4.75295 57.9178 5.04119ZM16.681 8.8243H11.333L11.6758 6.84264H15.0355L15.4126 4.60877H12.0872L12.3958 2.66314H17.7438L16.681 8.8243Z" fill="#8DC640"/>
</svg>
