<svg width="60" height="60" viewBox="0 0 60 60" fill="none" xmlns="http://www.w3.org/2000/svg">
<path fill-rule="evenodd" clip-rule="evenodd" d="M59.3332 29.9998C59.3332 46.2002 46.2002 59.3332 29.9998 59.3332C13.7995 59.3332 0.666504 46.2002 0.666504 29.9998C0.666504 13.7995 13.7995 0.666504 29.9998 0.666504C46.2002 0.666504 59.3332 13.7995 59.3332 29.9998ZM5.99984 29.9998C5.99984 43.2547 16.745 53.9998 29.9998 53.9998C43.2547 53.9998 53.9998 43.2547 53.9998 29.9998C53.9998 16.745 43.2547 5.99984 29.9998 5.99984C16.745 5.99984 5.99984 16.745 5.99984 29.9998ZM19.3332 43.3334V16.6667C19.3332 14.5722 21.637 13.2953 23.4132 14.4054L44.7465 27.7387C46.4176 28.7832 46.4176 31.2169 44.7465 32.2614L23.4132 45.5947C21.637 46.7048 19.3332 45.4279 19.3332 43.3334ZM24.6665 21.4778L38.3017 29.9998L24.6665 38.5218V21.4778Z" fill="white"/>
</svg>
