<svg width="16" height="16" viewBox="0 0 16 16" fill="none" xmlns="http://www.w3.org/2000/svg">
<path fill-rule="evenodd" clip-rule="evenodd" d="M7.99935 15.3332C3.94926 15.3332 0.666016 12.0499 0.666016 7.99984C0.666016 3.94975 3.94926 0.666504 7.99935 0.666504C12.0494 0.666504 15.3327 3.94975 15.3327 7.99984C15.3327 12.0499 12.0494 15.3332 7.99935 15.3332ZM7.99935 13.9998C11.3131 13.9998 13.9993 11.3135 13.9993 7.99984C13.9993 4.68613 11.3131 1.99984 7.99935 1.99984C4.68564 1.99984 1.99935 4.68613 1.99935 7.99984C1.99935 11.3135 4.68564 13.9998 7.99935 13.9998ZM11.3327 7.33317H8.66602V4.6665H7.33268V7.33317H4.66602V8.6665H7.33268V11.3332H8.66602V8.6665H11.3327V7.33317Z" fill="white"/>
</svg>
