<svg width="18" height="14" viewBox="0 0 18 14" fill="none" xmlns="http://www.w3.org/2000/svg">
<path fill-rule="evenodd" clip-rule="evenodd" d="M18 14.0002V0.585938L13.997 4.58897C13.5054 4.10866 13.2089 3.84221 12.8469 3.55262C11.4746 2.4548 10.1107 2.00015 8 2.00015C4.1135 2.00015 0 5.17876 0 9.00015V11.4144L1.70711 9.70726C1.74835 9.66602 1.84457 9.57768 1.98913 9.45805C2.23811 9.25199 2.52307 9.04475 2.8366 8.85181C3.70743 8.31591 4.61525 8.00015 5.5 8.00015C7.06076 8.00015 7.83577 8.44819 8.73931 9.84663L4.58579 14.0002H18ZM13.2929 6.70726L14 7.41436L16 5.41436V12.0002H9.41421L11.2472 10.1672L10.8682 9.50401C9.45407 7.02922 8.11703 6.00015 5.5 6.00015C4.60743 6.00015 3.74036 6.20399 2.90962 6.56202C4.0466 5.07627 6.07763 4.00015 8 4.00015C9.66707 4.00015 10.5889 4.30741 11.5975 5.11435C12.0265 5.45754 12.3765 5.79085 13.2929 6.70726Z" fill="white"/>
</svg>
