<svg width="46" height="17" viewBox="0 0 46 17" fill="none" xmlns="http://www.w3.org/2000/svg">
<path fill-rule="evenodd" clip-rule="evenodd" d="M34.8507 2.77348C34.8507 3.86433 34.0091 4.71932 32.9993 4.71932C31.9613 4.71932 31.1478 3.86433 31.1478 2.77348C31.1478 1.68263 31.9613 0.827637 32.9993 0.827637C34.0372 0.827637 34.8507 1.68263 34.8507 2.77348ZM6.43691 7.34322C5.96007 7.31374 4.86616 7.22529 4.86616 6.1934C4.86616 4.95514 6.43691 4.95514 7.02594 4.95514C8.1479 5.0141 9.26986 5.22048 10.3638 5.57427C10.3638 5.57427 10.8967 5.78065 11.3455 5.98703H11.4016V2.56706L11.3455 2.53758C10.2235 2.12482 8.90522 1.71207 6.46495 1.71207C2.2576 1.71207 0.770996 4.30652 0.770996 6.48823C0.770996 7.75597 1.27588 10.7632 6.10032 11.117L6.11849 11.1182C6.55089 11.1483 7.58692 11.2204 7.58692 12.2668C7.58692 13.1513 6.68935 13.6819 5.20275 13.6819C3.77225 13.6819 2.34174 13.3871 1.02344 12.827V16.3649C2.65028 16.7776 4.33323 16.984 6.01617 16.9545C10.1394 16.9545 11.9906 14.5075 11.9906 12.0899C11.9345 9.37751 9.88694 7.60856 6.43691 7.34322ZM36.4214 2.44876L40.1523 1.74118V16.8067H36.4214V2.44876ZM41.8911 2.44876V16.8067H45.622V1.74118L41.8911 2.44876ZM34.8516 16.8071H31.1206V5.78066H34.8516V16.8071ZM23.7998 10.6156C23.7998 7.37256 25.5671 5.75102 29.0175 5.63309C29.326 5.60361 29.6627 5.63309 29.9993 5.69206V8.90565C27.8112 8.99409 27.5588 9.8196 27.5588 11.7654V16.807H23.7998V10.6156ZM18.8907 5.78028C18.3858 7.16595 17.6565 8.46318 16.759 9.613V1.74118L12.8882 2.5372V16.8067H16.7309V12.3843C17.8529 14.1533 18.4139 16.8067 18.4139 16.8067H23.042C22.5932 14.8019 20.5737 11.1461 20.5737 11.1461C21.7517 9.52455 22.6493 7.72612 23.2383 5.78028H18.8907Z" fill="#910667"/>
</svg>
