<svg width="32" height="32" viewBox="0 0 32 32" fill="none" xmlns="http://www.w3.org/2000/svg">
<g clip-path="url(#clip0)">
<circle cx="16" cy="16" r="12" fill="white"/>
<path d="M31.0787 19.3964C33.396 8.98309 24.2733 -0.476916 13.56 1.33908C7.744 -2.27025 0 1.80842 0 8.72842C0 10.3378 0.444 11.8444 1.216 13.1431C-0.937333 23.5804 8.26 32.9044 18.964 30.9644C20.212 31.6244 21.636 32.0004 23.1493 32.0004C29.748 32.0004 33.9733 25.1564 31.0787 19.3964ZM16.128 26.5058C13.0053 26.5058 9.95467 25.7524 8.14933 23.1738C5.45867 19.3684 9.00667 17.4644 10.748 18.9151C12.2013 20.1404 11.7453 23.1044 16.0133 23.1044C17.8947 23.1044 20.2173 22.3018 20.2173 20.4364C20.2173 16.6831 11.8907 18.4591 8.58 14.3671C7.364 12.8684 7.13467 10.2244 8.628 8.30709C11.2307 4.95775 18.868 4.75375 22.152 7.28309C25.184 9.62975 24.3653 12.7444 21.9187 12.7444C18.976 12.7444 20.5227 8.89375 15.772 8.89375C12.328 8.89375 10.9733 11.3431 13.3987 12.5351C16.6267 14.1378 25.0653 13.6378 25.0653 20.0058C25.0547 24.4818 20.736 26.5058 16.128 26.5058Z" fill="#03A9F4"/>
</g>
<defs>
<clipPath id="clip0">
<rect width="32" height="32" fill="white"/>
</clipPath>
</defs>
</svg>
