<svg width="16" height="14" viewBox="0 0 16 14" fill="none" xmlns="http://www.w3.org/2000/svg">
<path fill-rule="evenodd" clip-rule="evenodd" d="M8.23253 11.8756C8.08687 11.7991 7.91286 11.7991 7.76719 11.8756L4.09261 13.8075C3.7258 14.0003 3.29708 13.6888 3.36714 13.2804L4.06892 9.18868C4.09674 9.02648 4.04296 8.86098 3.92512 8.74611L0.952322 5.84835C0.655563 5.55908 0.819318 5.0551 1.22943 4.9955L5.33774 4.39853C5.50059 4.37487 5.64137 4.27258 5.71421 4.12501L7.5515 0.402252C7.7349 0.0306296 8.26483 0.0306293 8.44823 0.402252L10.2855 4.12501C10.3584 4.27258 10.4991 4.37487 10.662 4.39853L14.7703 4.9955C15.1804 5.0551 15.3442 5.55908 15.0474 5.84835L12.0746 8.74611C11.9568 8.86098 11.903 9.02648 11.9308 9.18868L12.6326 13.2804C12.7026 13.6888 12.2739 14.0003 11.9071 13.8075L8.23253 11.8756Z" fill="#1CB9FE"/>
</svg>
