<svg width="16" height="12" viewBox="0 0 16 12" fill="none" xmlns="http://www.w3.org/2000/svg">
<path fill-rule="evenodd" clip-rule="evenodd" d="M8.00002 0.666504C9.81838 0.666504 11.5571 1.62025 13.1775 3.18727C13.7304 3.72187 14.2305 4.29261 14.6707 4.86359C14.9364 5.20813 15.125 5.47917 15.2283 5.64064L15.458 5.99984L15.2283 6.35904C15.125 6.52051 14.9364 6.79154 14.6707 7.13609C14.2305 7.70707 13.7304 8.2778 13.1775 8.8124C11.5571 10.3794 9.81838 11.3332 8.00002 11.3332C6.18165 11.3332 4.4429 10.3794 2.82249 8.8124C2.26968 8.2778 1.76955 7.70707 1.32929 7.13609C1.06362 6.79154 0.874998 6.52051 0.771725 6.35904L0.541992 5.99984L0.771725 5.64064C0.874998 5.47917 1.06362 5.20813 1.32929 4.86359C1.76955 4.29261 2.26968 3.72187 2.82249 3.18727C4.4429 1.62025 6.18165 0.666504 8.00002 0.666504ZM13.6148 5.67775C13.2117 5.15498 12.7534 4.63197 12.2506 4.14574C10.855 2.79609 9.40336 1.99984 7.99997 1.99984C6.59659 1.99984 5.14497 2.79609 3.74934 4.14574C3.24653 4.63197 2.78823 5.15498 2.38514 5.67775C2.29808 5.79066 2.21763 5.89839 2.14409 5.99984C2.21763 6.10129 2.29808 6.20901 2.38514 6.32192C2.78823 6.84469 3.24653 7.3677 3.74934 7.85394C5.14497 9.20359 6.59659 9.99984 7.99997 9.99984C9.40336 9.99984 10.855 9.20359 12.2506 7.85394C12.7534 7.3677 13.2117 6.84469 13.6148 6.32192C13.7019 6.20901 13.7823 6.10129 13.8559 5.99984C13.7823 5.89839 13.7019 5.79066 13.6148 5.67775ZM5.33336 5.99984C5.33336 7.4726 6.52726 8.6665 8.00002 8.6665C9.47278 8.6665 10.6667 7.4726 10.6667 5.99984C10.6667 4.52708 9.47278 3.33317 8.00002 3.33317C6.52726 3.33317 5.33336 4.52708 5.33336 5.99984ZM9.33336 5.99984C9.33336 6.73622 8.7364 7.33317 8.00002 7.33317C7.26364 7.33317 6.66669 6.73622 6.66669 5.99984C6.66669 5.26346 7.26364 4.6665 8.00002 4.6665C8.7364 4.6665 9.33336 5.26346 9.33336 5.99984Z" fill="#828282"/>
</svg>
