<svg width="16" height="12" viewBox="0 0 16 12" fill="none" xmlns="http://www.w3.org/2000/svg">
<path fill-rule="evenodd" clip-rule="evenodd" d="M13.6977 2.85215C12.1946 1.08475 10.2968 0 8.00012 0C5.70346 0 3.80563 1.08475 2.30254 2.85215C1.42488 3.88415 0.859325 4.91103 0.571933 5.62789L0.422852 5.99975L0.571761 6.37168C0.85881 7.08865 1.42396 8.11563 2.30144 9.14773C3.80412 10.9152 5.7023 12 8.00012 12C10.2979 12 12.1961 10.9152 13.6988 9.14773C14.5763 8.11563 15.1414 7.08865 15.4285 6.37168L15.5774 5.99975L15.4283 5.62789C15.1409 4.91103 14.5754 3.88415 13.6977 2.85215ZM12.1742 4.14785C12.5925 4.63975 12.9486 5.17075 13.2407 5.70117C13.3011 5.81079 13.3538 5.91104 13.399 6.00022C13.3539 6.08936 13.3012 6.18957 13.2409 6.29913C12.9491 6.82949 12.5932 7.36042 12.1751 7.85227C11.0209 9.20978 9.6382 10 8.00012 10C6.36205 10 4.97931 9.20978 3.82518 7.85227C3.40702 7.36042 3.05115 6.82949 2.75929 6.29913C2.699 6.18957 2.64634 6.08936 2.60128 6.00022C2.6464 5.91104 2.69913 5.81079 2.75951 5.70117C3.05164 5.17075 3.40774 4.63975 3.82608 4.14785C4.98066 2.79025 6.36323 2 8.00012 2C9.63701 2 11.0196 2.79025 12.1742 4.14785ZM8.00012 9C6.34327 9 5.00012 7.65685 5.00012 6C5.00012 4.34315 6.34327 3 8.00012 3C9.65697 3 11.0001 4.34315 11.0001 6C11.0001 7.65685 9.65697 9 8.00012 9ZM9.00012 6C9.00012 6.55228 8.55241 7 8.00012 7C7.44784 7 7.00012 6.55228 7.00012 6C7.00012 5.44772 7.44784 5 8.00012 5C8.55241 5 9.00012 5.44772 9.00012 6Z" fill="#BDBDBD"/>
</svg>
