<svg width="476" height="427" viewBox="0 0 476 427" fill="none" xmlns="http://www.w3.org/2000/svg">
<g opacity="0.08">
<path fill-rule="evenodd" clip-rule="evenodd" d="M242.538 301.045L359.304 233.63C326.719 247.837 291.036 241.747 272.844 218.706C283.701 245.982 271.131 279.931 242.538 301.045ZM347.793 174.95C339.879 204.682 308.987 222.848 279.15 215.312L272.673 213.677L276.523 199.244L276.538 199.168C277.663 194.038 277.423 190.239 276.291 185.172L276.276 185.101L270.31 162.744C269.045 158.003 266.264 153.362 261.025 152.436C255.325 151.422 249.909 155.405 246.606 159.692C242.651 164.828 240.586 171.503 241.35 177.91L242.542 187.933L238.102 197.211C236.148 201.233 232.89 202.617 229.249 202.715L178.587 189.918C178.048 189.858 177.509 189.76 176.973 189.622L164.827 186.558C158.159 184.871 154.15 178.058 155.918 171.412C157.688 164.77 164.594 160.707 171.265 162.393L183.407 165.459C184.262 165.671 185.069 165.969 185.825 166.342L232.54 178.111C234.561 178.401 235.778 175.586 233.541 174.518L173.81 159.495C171.801 158.859 169.509 157.982 167.734 156.886C163.223 154.128 160.828 148.588 162.26 143.176C164.033 136.532 170.938 132.461 177.605 134.154L241.364 150.371C243.38 150.66 244.597 147.845 242.363 146.775L184.573 132.243C182.317 131.676 179.206 130.582 177.095 129.182C172.801 126.338 170.582 120.971 171.984 115.706C173.338 110.614 177.716 107.039 182.694 106.407C183.998 111.538 187.955 115.834 193.437 117.313C199.117 118.844 204.982 116.957 208.801 112.932C207.31 120.644 212.004 128.328 219.732 130.414C227.861 132.603 236.372 127.797 238.713 119.718L239.349 119.882C240.722 124.889 244.634 129.065 250.021 130.519C256.93 132.381 264.124 129.184 267.559 123.221C268.463 128.933 272.62 133.87 278.577 135.475C286.734 137.677 295.278 132.832 297.581 124.708L300.998 112.655C301.679 110.244 301.741 107.808 301.274 105.513L307.939 107.194C337.776 114.73 355.713 145.218 347.793 174.95ZM194.212 114.581C187.572 112.79 183.675 105.908 185.549 99.2923L190.227 82.7906C192.107 76.1768 199.076 72.224 205.713 74.0125C212.353 75.804 216.25 82.6864 214.376 89.3016L209.698 105.803C207.823 112.418 200.852 116.368 194.212 114.581ZM220.508 127.678C213.866 125.888 209.969 119.014 211.848 112.392L219.71 84.656C221.587 78.039 228.552 74.0931 235.196 75.8779C241.835 77.6694 245.734 84.5468 243.855 91.1688L235.991 118.901C234.115 125.521 227.147 129.469 220.508 127.678ZM279.355 132.742C272.714 130.955 268.817 124.073 270.691 117.458L274.109 105.404C275.987 98.7874 282.953 94.8365 289.592 96.6281C296.235 98.4178 300.133 105.295 298.254 111.917L294.838 123.966C292.964 130.581 285.994 134.534 279.355 132.742ZM250.794 127.785C244.155 125.993 240.256 119.116 242.135 112.494L247.472 93.6611C249.352 87.0472 256.318 83.0963 262.957 84.8879C269.598 86.6745 273.495 93.5568 271.621 100.172L266.281 119.006C264.403 125.623 257.435 129.571 250.794 127.785ZM197.471 261.738C227.181 269.749 258.358 252.078 266.748 222.472L267.115 221.174C267.203 220.923 267.287 220.666 267.361 220.398L267.682 219.181L268.362 216.776L268.341 217.063L273.289 198.501C274.252 194.124 274.178 191.006 273.046 185.918L267.1 163.624C262.301 145.649 242.706 161.151 244.65 177.487L245.955 188.459L241.098 198.605C237.567 205.867 230.554 207.436 220.828 204.775L171.526 192.329C170.989 192.263 170.452 192.168 169.916 192.031L159.818 189.48L158.721 193.346C150.328 222.954 167.763 253.731 197.471 261.738Z" fill="white"/>
<path fill-rule="evenodd" clip-rule="evenodd" d="M159.1 19.5276C204.433 -6.64563 256.205 -11.4612 302.603 1.97443C262.412 -6.6709 218.873 -0.965327 180.321 21.2925C98.3253 68.633 69.8809 172.933 116.804 254.207C163.726 335.478 268.273 362.991 350.269 315.651C388.821 293.393 415.533 258.543 428.142 219.413C416.578 266.313 386.52 308.739 341.187 334.912C253.331 385.635 141.318 356.154 91.0454 269.079C40.7707 182.001 71.244 70.251 159.1 19.5276Z" fill="white"/>
<path fill-rule="evenodd" clip-rule="evenodd" d="M187.716 35.3538C261.827 -7.43437 356.424 17.6185 398.964 91.3006C441.501 164.976 415.901 259.429 341.789 302.217C313.693 318.439 282.649 324.896 252.616 322.665C276.189 322.057 299.979 315.719 321.867 303.082C391.548 262.852 415.616 174.052 375.62 104.778C335.623 35.501 246.686 11.9444 177.006 52.1745C155.118 64.8115 137.734 82.2451 125.421 102.357C138.504 75.2282 159.619 51.5753 187.716 35.3538Z" fill="white"/>
</g>
</svg>
