<svg width="64" height="14" viewBox="0 0 64 14" fill="none" xmlns="http://www.w3.org/2000/svg">
<path d="M13.1423 8.69339C12.2513 12.4434 8.63122 14.7256 5.05664 13.7904C1.48351 12.8555 -0.691678 9.05716 0.19983 5.30739C1.09051 1.55696 4.71054 -0.725456 8.28408 0.209472C11.8585 1.1444 14.0334 4.94317 13.1423 8.69339Z" fill="#F7931A"/>
<path d="M9.6129 6.00308C9.7457 5.07165 9.06978 4.57093 8.14554 4.23691L8.44534 2.97517L7.71333 2.78376L7.42145 4.01225C7.22901 3.96194 7.03136 3.91447 6.83496 3.86744L7.12893 2.63086L6.39734 2.43945L6.09732 3.70075C5.93803 3.66269 5.78166 3.62507 5.62988 3.58548L5.63071 3.58154L4.6212 3.31707L4.42647 4.13737C4.42647 4.13737 4.96959 4.26797 4.95812 4.27606C5.2546 4.35371 5.30818 4.55956 5.29921 4.72274L4.9577 6.16014C4.97814 6.16561 5.00462 6.17348 5.03381 6.18573C5.00941 6.17939 4.98335 6.17238 4.95646 6.1656L4.47776 8.17918C4.44148 8.27368 4.34954 8.41543 4.1423 8.36161C4.1496 8.37277 3.61023 8.22227 3.61023 8.22227L3.24683 9.10142L4.19942 9.35057C4.37664 9.39717 4.55031 9.44595 4.72127 9.49188L4.41834 10.7681L5.14952 10.9595L5.44954 9.69685C5.64927 9.75373 5.84317 9.80623 6.0329 9.85567L5.73392 11.1124L6.46593 11.3038L6.76887 10.03C8.01711 10.2778 8.95573 10.1779 9.35082 8.99336C9.66919 8.03962 9.33498 7.48947 8.67823 7.13072C9.15651 7.01501 9.51678 6.68492 9.6129 6.00308ZM7.94038 8.46377C7.71417 9.41751 6.18363 8.90192 5.68742 8.77264L6.0894 7.08194C6.5856 7.21187 8.17681 7.46913 7.94038 8.46377ZM8.1668 5.98929C7.96039 6.85685 6.68651 6.41607 6.27328 6.30801L6.63773 4.77459C7.05096 4.88265 8.38175 5.08433 8.1668 5.98929Z" fill="white"/>
<path d="M19.5516 4.23516C20.0926 4.23516 20.56 4.33687 20.9528 4.53659C21.3475 4.73828 21.6732 5.00996 21.9344 5.35165C22.1921 5.69508 22.3839 6.09648 22.5078 6.55651C22.6308 7.01785 22.6925 7.51375 22.6925 8.04465C22.6925 8.86015 22.5501 9.63058 22.2626 10.3568C21.9751 11.0842 21.585 11.715 21.0888 12.2531C20.593 12.7906 20.0075 13.2143 19.3324 13.5273C18.6584 13.8406 17.9255 13.9972 17.1387 13.9972C17.0369 13.9972 16.8581 13.9942 16.6054 13.9887C16.3527 13.9832 16.0623 13.9559 15.737 13.9097C15.4097 13.8618 15.0636 13.7909 14.6981 13.696C14.3328 13.6028 13.9859 13.4722 13.6592 13.3064L16.5806 0.427419L19.1971 0.00195312L18.1511 4.57225C18.375 4.46638 18.6006 4.38434 18.8258 4.32463C19.0512 4.26578 19.293 4.23516 19.5516 4.23516ZM17.3568 11.8194C17.7508 11.8194 18.1221 11.7176 18.4709 11.5179C18.8208 11.318 19.1227 11.0481 19.3756 10.7118C19.6285 10.3741 19.8286 9.9937 19.9746 9.56867C20.1205 9.14365 20.1943 8.70024 20.1943 8.2389C20.1943 7.67213 20.1041 7.23004 19.9241 6.91045C19.7442 6.59217 19.4112 6.43204 18.9278 6.43204C18.7693 6.43204 18.5652 6.46376 18.3121 6.52042C18.0581 6.58057 17.8309 6.70548 17.6272 6.89338L16.5134 11.747C16.5806 11.7594 16.64 11.7712 16.6906 11.7824C16.7403 11.7944 16.7951 11.803 16.8497 11.8089C16.9075 11.8156 16.9736 11.8191 17.0534 11.8191C17.1333 11.8191 17.2331 11.8194 17.3568 11.8194Z" fill="#4D4D4D"/>
<path d="M25.406 13.7511H22.9069L25.0174 4.43312H27.5337L25.406 13.7511ZM26.6222 3.29782C26.2734 3.29782 25.9571 3.18888 25.6765 2.97057C25.3935 2.75358 25.2534 2.41955 25.2534 1.96937C25.2534 1.72174 25.3014 1.48943 25.3965 1.27024C25.493 1.0515 25.6191 0.863157 25.7772 0.703034C25.935 0.544223 26.1178 0.417347 26.3255 0.321754C26.5344 0.227692 26.7567 0.180664 26.9935 0.180664C27.3421 0.180664 27.6567 0.289601 27.9384 0.507911C28.219 0.727315 28.3602 1.06134 28.3602 1.50912C28.3602 1.75762 28.3124 1.9908 28.2165 2.20955C28.1212 2.4283 27.9951 2.61664 27.8371 2.77676C27.6805 2.93579 27.496 3.06223 27.2887 3.15694C27.0796 3.25254 26.8582 3.29782 26.6222 3.29782Z" fill="#4D4D4D"/>
<path d="M29.7235 2.11101L32.3411 1.68555L31.6983 4.43214H34.5017L33.9955 6.59293H31.209L30.4668 9.85228C30.3984 10.124 30.3596 10.3777 30.3488 10.6135C30.3365 10.8504 30.365 11.0539 30.4326 11.2251C30.4997 11.3969 30.6204 11.5292 30.7956 11.6228C30.9699 11.718 31.2194 11.7659 31.5468 11.7659C31.8163 11.7659 32.079 11.739 32.333 11.6856C32.5855 11.6331 32.8413 11.56 33.1002 11.4645L33.2866 13.4848C32.9489 13.6147 32.5832 13.7265 32.1891 13.8206C31.7945 13.916 31.3272 13.9619 30.7872 13.9619C30.0108 13.9619 29.4089 13.8409 28.98 13.6001C28.5518 13.3575 28.2491 13.0261 28.0679 12.6065C27.8892 12.1885 27.8094 11.7066 27.8317 11.1637C27.8548 10.6194 27.933 10.0474 28.0679 9.44497L29.7235 2.11101Z" fill="#4D4D4D"/>
<path d="M34.3917 10.03C34.3917 9.22738 34.5156 8.47051 34.763 7.76199C35.0101 7.05281 35.366 6.43266 35.8278 5.90044C36.288 5.37085 36.8486 4.95129 37.5085 4.6433C38.1652 4.33705 38.9006 4.18262 39.711 4.18262C40.2182 4.18262 40.6713 4.23293 41.0699 4.33377C41.4702 4.43549 41.8324 4.56696 42.1599 4.7319L41.298 6.78812C41.0728 6.69231 40.8391 6.60787 40.5975 6.53131C40.3556 6.45322 40.0604 6.4156 39.7112 6.4156C38.877 6.4156 38.2175 6.71725 37.7267 7.31859C37.2378 7.92036 36.9916 8.73038 36.9916 9.74647C36.9916 10.3487 37.1155 10.8356 37.364 11.2081C37.6112 11.5807 38.068 11.7659 38.7313 11.7659C39.0586 11.7659 39.3745 11.7301 39.677 11.6601C39.9818 11.5892 40.2509 11.4999 40.488 11.3945L40.6746 13.5024C40.3585 13.631 40.0099 13.7471 39.6276 13.8489C39.2444 13.9471 38.7882 13.9981 38.2592 13.9981C37.561 13.9981 36.9699 13.8909 36.4864 13.6798C36.0027 13.4654 35.6031 13.1808 35.2882 12.8203C34.9717 12.4589 34.7445 12.037 34.604 11.5527C34.4634 11.0688 34.3917 10.5604 34.3917 10.03Z" fill="#4D4D4D"/>
<path d="M45.4933 13.9981C44.8968 13.9981 44.3787 13.9027 43.9392 13.7139C43.501 13.5251 43.138 13.2602 42.8509 12.9168C42.5634 12.5751 42.3482 12.1702 42.2008 11.7036C42.0534 11.2372 41.9825 10.7208 41.9825 10.1549C41.9825 9.44503 42.0912 8.73542 42.3107 8.02777C42.5292 7.31859 42.8534 6.68138 43.2825 6.11504C43.7082 5.54783 44.2334 5.08407 44.8518 4.72248C45.4696 4.3633 46.1801 4.18262 46.9782 4.18262C47.5639 4.18262 48.0792 4.27821 48.5248 4.46699C48.9682 4.65533 49.3335 4.92242 49.6223 5.26411C49.9079 5.60754 50.125 6.0107 50.2709 6.47794C50.4179 6.94344 50.4904 7.46121 50.4904 8.02755C50.4904 8.7352 50.3833 9.44481 50.1706 10.1547C49.9578 10.861 49.6419 11.4997 49.2249 12.0674C48.8088 12.6337 48.2884 13.0972 47.6633 13.4573C47.0391 13.8174 46.3152 13.9981 45.4933 13.9981ZM46.7424 6.41582C46.3719 6.41582 46.0444 6.52868 45.7639 6.75159C45.4825 6.97712 45.2461 7.26062 45.0555 7.60252C44.8628 7.94596 44.72 8.32045 44.6235 8.72754C44.5278 9.13551 44.4809 9.52116 44.4809 9.88756C44.4809 10.4788 44.5718 10.9393 44.7505 11.2707C44.9317 11.6004 45.2571 11.7662 45.7302 11.7662C46.1019 11.7662 46.4278 11.6542 46.7099 11.4289C46.9897 11.2051 47.2263 10.9214 47.4183 10.5788C47.6097 10.2371 47.7538 9.86153 47.8503 9.45379C47.9448 9.04713 47.9929 8.65929 47.9929 8.29354C47.9929 7.7038 47.9024 7.24224 47.7221 6.91128C47.542 6.58162 47.2151 6.41582 46.7424 6.41582Z" fill="#4D4D4D"/>
<path d="M53.2142 13.7511H50.7129L52.8234 4.43312H55.341L53.2142 13.7511ZM54.4284 3.29782C54.0798 3.29782 53.7637 3.18888 53.4835 2.97057C53.2021 2.75358 53.0607 2.41955 53.0607 1.96937C53.0607 1.72174 53.1093 1.48943 53.2046 1.27024C53.2998 1.0515 53.4268 0.863157 53.5849 0.703034C53.7418 0.544223 53.9264 0.417347 54.1336 0.321754C54.3413 0.227692 54.5635 0.180664 54.7995 0.180664C55.1489 0.180664 55.4646 0.289601 55.7457 0.507911C56.0269 0.727315 56.1689 1.06134 56.1689 1.50912C56.1689 1.75762 56.1184 1.9908 56.024 2.20955C55.9296 2.4283 55.8026 2.61664 55.6452 2.77676C55.4867 2.93579 55.3045 3.06223 55.0968 3.15694C54.8875 3.25254 54.6657 3.29782 54.4284 3.29782Z" fill="#4D4D4D"/>
<path d="M57.1419 4.8563C57.3316 4.79811 57.5435 4.72812 57.7738 4.65199C58.0051 4.57587 58.2634 4.505 58.5519 4.44112C58.8374 4.37528 59.1595 4.3219 59.5137 4.28056C59.8679 4.23834 60.2716 4.21777 60.72 4.21777C62.0381 4.21777 62.9467 4.62049 63.4483 5.42352C63.9496 6.22654 64.0363 7.32553 63.711 8.71851L62.5614 13.7497H60.0458L61.16 8.82439C61.2279 8.51683 61.2813 8.21955 61.3207 7.92905C61.3605 7.64118 61.3582 7.38743 61.3117 7.16781C61.2673 6.95081 61.1627 6.77319 61.0002 6.63559C60.8353 6.50019 60.5862 6.43216 60.2482 6.43216C59.9223 6.43216 59.5908 6.46891 59.2525 6.53979L57.6143 13.7495H55.0977L57.1419 4.8563Z" fill="#4D4D4D"/>
</svg>
