<svg width="23" height="22" viewBox="0 0 23 22" fill="none" xmlns="http://www.w3.org/2000/svg">
<path fill-rule="evenodd" clip-rule="evenodd" d="M22.0111 11.0115C22.0111 16.9225 17.2195 21.7143 11.3088 21.7143C5.39804 21.7143 0.606445 16.9225 0.606445 11.0115C0.606445 5.10043 5.39804 0.308594 11.3088 0.308594C17.2195 0.308594 22.0111 5.10043 22.0111 11.0115ZM13.8799 7.03494C15.3687 7.5462 16.4577 8.31174 16.244 9.73642C16.0888 10.7797 15.5084 11.2842 14.7372 11.4609C15.7953 12.0096 16.1559 13.051 15.8208 14.3103C15.1846 16.1224 13.6723 16.275 11.6609 15.8962L11.1725 17.8442L9.9935 17.5511L10.4752 15.6292C10.1695 15.5536 9.85712 15.4726 9.53532 15.3863L9.05162 17.3176L7.87393 17.0245L8.36167 15.0725L5.98682 14.4756L6.57264 13.1305C6.57264 13.1305 7.44196 13.36 7.42987 13.3433C7.76376 13.4256 7.91223 13.2088 7.97068 13.0649L9.29414 7.77773C9.30892 7.52813 9.22226 7.21362 8.7446 7.0945C8.76274 7.08179 7.88804 6.88237 7.88804 6.88237L8.20178 5.62766L10.58 6.21453L11.0637 4.28461L12.2421 4.57772L11.7684 6.46949C12.0855 6.54109 12.404 6.61403 12.7137 6.69099L13.1839 4.81126L14.363 5.10436L13.8799 7.03494ZM11.0588 10.2543C11.862 10.4672 13.6096 10.9306 13.9142 9.71568C14.225 8.47268 12.5271 8.09727 11.6957 7.91346L11.6957 7.91346L11.6957 7.91344C11.6015 7.89262 11.5184 7.87426 11.4507 7.85737L10.8635 10.2035C10.9194 10.2173 10.9852 10.2348 11.0588 10.2543ZM10.1488 14.0316C11.1107 14.285 13.2146 14.8392 13.5494 13.5005C13.892 12.1317 11.8522 11.6758 10.8569 11.4534L10.8569 11.4533L10.8568 11.4533C10.7457 11.4285 10.6475 11.4066 10.5672 11.3866L9.91957 13.9723C9.98531 13.9886 10.0623 14.0089 10.1485 14.0316L10.1487 14.0316L10.1488 14.0316Z" fill="#F7931A"/>
</svg>
