<svg width="74" height="20" viewBox="0 0 74 20" fill="none" xmlns="http://www.w3.org/2000/svg">
<path d="M5.61294 0.666992L0 10.1734L5.61294 7.56962V0.666992Z" fill="#8A92B2"/>
<path d="M5.61294 7.56934L0 10.1731L5.61294 13.5602V7.56934Z" fill="#62688F"/>
<path d="M11.2274 10.1734L5.6134 0.666992V7.56962L11.2274 10.1734Z" fill="#62688F"/>
<path d="M5.6134 13.5602L11.2274 10.1731L5.6134 7.56934V13.5602Z" fill="#454A75"/>
<path d="M0 11.2607L5.61294 19.3342V14.6457L0 11.2607Z" fill="#8A92B2"/>
<path d="M5.6134 14.6457V19.3342L11.2305 11.2607L5.6134 14.6457Z" fill="#62688F"/>
<path d="M18.1419 7.4578L17.9768 9.68908H21.2154C21.5033 9.68908 21.7192 9.75669 21.8631 9.89192C22.0155 10.0181 22.0918 10.203 22.0918 10.4464C22.0918 11.0324 21.7658 11.3254 21.1138 11.3254H17.8625L17.6846 13.7189H21.1773C21.4567 13.7189 21.6726 13.7865 21.825 13.9218C21.9774 14.057 22.0537 14.2463 22.0537 14.4897C22.0537 15.0667 21.7192 15.3552 21.0503 15.3552H16.5543C16.2579 15.3552 16.0336 15.2695 15.8812 15.0983C15.7372 14.927 15.6779 14.6835 15.7033 14.368L16.2622 6.80869C16.2876 6.49316 16.3849 6.24975 16.5543 6.07846C16.7321 5.90717 16.9692 5.82152 17.2655 5.82152H21.7615C22.0494 5.82152 22.2653 5.88914 22.4093 6.02436C22.5617 6.15959 22.6379 6.34441 22.6379 6.5788C22.6379 7.1648 22.3077 7.4578 21.6472 7.4578H18.1419Z" fill="#4D4D4D"/>
<path d="M25.6069 12.7453L25.5942 12.9616C25.5942 13.6288 25.8652 13.9623 26.4071 13.9623C26.5002 13.9623 26.5934 13.9578 26.6865 13.9488C26.7796 13.9308 26.8643 13.9218 26.9405 13.9218C27.0675 13.9218 27.1691 13.9849 27.2453 14.1111C27.33 14.2283 27.3723 14.3815 27.3723 14.5709C27.3723 14.8954 27.2665 15.1253 27.0548 15.2605C26.8516 15.3958 26.4875 15.4634 25.9626 15.4634C25.2259 15.4634 24.6586 15.2605 24.2607 14.8548C23.8712 14.4492 23.6765 13.8677 23.6765 13.1104C23.6765 12.9481 23.6807 12.8264 23.6892 12.7453L23.8797 10.2435H23.3843C23.1219 10.2435 22.9186 10.1804 22.7747 10.0542C22.6392 9.92798 22.5715 9.74768 22.5715 9.51328C22.5715 8.98138 22.8763 8.71543 23.4859 8.71543H23.994L24.0702 7.66064C24.0956 7.36313 24.2014 7.12874 24.3877 6.95745C24.574 6.78616 24.8153 6.70051 25.1116 6.70051C25.408 6.70051 25.6323 6.78616 25.7848 6.95745C25.9456 7.12874 26.0134 7.36313 25.988 7.66064L25.9118 8.71543H26.8008C27.0548 8.71543 27.2496 8.77853 27.385 8.90475C27.529 9.03096 27.6009 9.20676 27.6009 9.43214C27.6009 9.97306 27.3004 10.2435 26.6992 10.2435H25.7975L25.6069 12.7453Z" fill="#4D4D4D"/>
<path d="M32.2331 8.55315C32.9274 8.55315 33.4523 8.7605 33.808 9.17521C34.1636 9.5809 34.3414 10.1804 34.3414 10.9738C34.3414 11.1631 34.3372 11.3073 34.3287 11.4065L34.1001 14.4762C34.0747 14.7737 33.9688 15.0081 33.7826 15.1794C33.6048 15.3507 33.3677 15.4363 33.0713 15.4363C32.775 15.4363 32.5464 15.3507 32.3855 15.1794C32.2246 15.0081 32.1569 14.7737 32.1823 14.4762L32.4109 11.4876C32.4448 11.0459 32.377 10.7123 32.2077 10.4869C32.0468 10.2615 31.7928 10.1489 31.4456 10.1489C31.0477 10.1489 30.7344 10.2841 30.5058 10.5545C30.2772 10.816 30.146 11.1766 30.1121 11.6364L29.8962 14.4762C29.8792 14.7737 29.7776 15.0081 29.5914 15.1794C29.4136 15.3507 29.1765 15.4363 28.8801 15.4363C28.5838 15.4363 28.3509 15.3507 28.1816 15.1794C28.0207 15.0081 27.953 14.7737 27.9784 14.4762L28.5499 6.68699C28.5668 6.40751 28.6727 6.18213 28.8674 6.01084C29.0622 5.83955 29.3077 5.75391 29.6041 5.75391C29.8835 5.75391 30.0994 5.83504 30.2518 5.99732C30.4127 6.15959 30.4846 6.37596 30.4677 6.64642L30.2645 9.44567C30.4846 9.16619 30.764 8.94983 31.1027 8.79657C31.4414 8.63429 31.8182 8.55315 32.2331 8.55315Z" fill="#4D4D4D"/>
<path d="M41.3486 11.7987C41.3486 11.997 41.2978 12.1503 41.1962 12.2584C41.0946 12.3666 40.9592 12.4207 40.7898 12.4207H37.2464C37.3226 13.4304 37.8433 13.9353 38.8085 13.9353C39.0795 13.9353 39.3166 13.9037 39.5198 13.8406C39.723 13.7775 39.9473 13.6783 40.1929 13.5431C40.3114 13.48 40.4257 13.4485 40.5358 13.4485C40.6967 13.4485 40.8237 13.5161 40.9168 13.6513C41.0184 13.7865 41.0692 13.9488 41.0692 14.1381C41.0692 14.2914 41.0354 14.4401 40.9676 14.5844C40.9084 14.7196 40.811 14.8323 40.6755 14.9225C40.4469 15.0847 40.1506 15.2154 39.7865 15.3146C39.4224 15.4138 39.0498 15.4634 38.6688 15.4634C38.0169 15.4634 37.4453 15.3281 36.9542 15.0577C36.4631 14.7872 36.0821 14.4086 35.8112 13.9218C35.5402 13.4259 35.4048 12.8534 35.4048 12.2043C35.4048 11.5012 35.5402 10.8746 35.8112 10.3247C36.0821 9.76571 36.4547 9.33298 36.9288 9.02646C37.4115 8.71092 37.9576 8.55315 38.5672 8.55315C39.4563 8.55315 40.1421 8.83713 40.6247 9.4051C41.1073 9.97306 41.3486 10.7709 41.3486 11.7987ZM38.6307 9.95954C37.8771 9.95954 37.4284 10.4419 37.2845 11.4065H39.7484C39.7484 10.9377 39.651 10.5816 39.4563 10.3382C39.27 10.0858 38.9948 9.95954 38.6307 9.95954Z" fill="#4D4D4D"/>
<path d="M46.5077 8.5802C46.7448 8.56217 46.931 8.62527 47.0665 8.76952C47.202 8.91376 47.257 9.12112 47.2316 9.39157C47.2062 9.69809 47.1215 9.92348 46.9776 10.0677C46.8337 10.203 46.5881 10.2886 46.241 10.3247L45.898 10.3652C45.3816 10.4283 45.0132 10.5771 44.7931 10.8115C44.5814 11.0369 44.4544 11.3975 44.4121 11.8933L44.2216 14.4762C44.1962 14.7917 44.0861 15.0306 43.8914 15.1929C43.7051 15.3552 43.4765 15.4363 43.2055 15.4363C42.9261 15.4363 42.6975 15.3552 42.5197 15.1929C42.3503 15.0306 42.2784 14.7917 42.3038 14.4762L42.6721 9.51328C42.6975 9.21578 42.8076 8.98589 43.0023 8.82361C43.2055 8.66134 43.4384 8.5802 43.7008 8.5802C43.9549 8.5802 44.1581 8.66134 44.3105 8.82361C44.4629 8.97687 44.5306 9.19324 44.5137 9.47271L44.501 9.63499C44.7296 9.31945 45.009 9.07604 45.3392 8.90475C45.6694 8.72444 46.0123 8.62077 46.368 8.59372L46.5077 8.5802Z" fill="#4D4D4D"/>
<path d="M53.0942 11.7987C53.0942 11.997 53.0434 12.1503 52.9418 12.2584C52.8402 12.3666 52.7047 12.4207 52.5354 12.4207H48.9919C49.0681 13.4304 49.5889 13.9353 50.5541 13.9353C50.8251 13.9353 51.0621 13.9037 51.2653 13.8406C51.4686 13.7775 51.6929 13.6783 51.9385 13.5431C52.057 13.48 52.1713 13.4485 52.2814 13.4485C52.4423 13.4485 52.5693 13.5161 52.6624 13.6513C52.764 13.7865 52.8148 13.9488 52.8148 14.1381C52.8148 14.2914 52.7809 14.4401 52.7132 14.5844C52.6539 14.7196 52.5566 14.8323 52.4211 14.9225C52.1925 15.0847 51.8961 15.2154 51.5321 15.3146C51.168 15.4138 50.7954 15.4634 50.4144 15.4634C49.7624 15.4634 49.1909 15.3281 48.6998 15.0577C48.2087 14.7872 47.8277 14.4086 47.5568 13.9218C47.2858 13.4259 47.1503 12.8534 47.1503 12.2043C47.1503 11.5012 47.2858 10.8746 47.5568 10.3247C47.8277 9.76571 48.2003 9.33298 48.6744 9.02646C49.157 8.71092 49.7032 8.55315 50.3128 8.55315C51.2018 8.55315 51.8877 8.83713 52.3703 9.4051C52.8529 9.97306 53.0942 10.7709 53.0942 11.7987ZM50.3763 9.95954C49.6227 9.95954 49.174 10.4419 49.03 11.4065H51.494C51.494 10.9377 51.3966 10.5816 51.2018 10.3382C51.0156 10.0858 50.7404 9.95954 50.3763 9.95954Z" fill="#4D4D4D"/>
<path d="M59.536 8.5802C59.8324 8.5802 60.0567 8.66584 60.2091 8.83713C60.37 9.00842 60.4378 9.24282 60.4124 9.54033L60.044 14.5032C60.0271 14.7827 59.9213 15.0081 59.7265 15.1794C59.5402 15.3507 59.3032 15.4363 59.0153 15.4363C58.7443 15.4363 58.5327 15.3552 58.3803 15.1929C58.2279 15.0306 58.1559 14.8143 58.1644 14.5438V14.5303C57.9442 14.8278 57.6648 15.0577 57.3261 15.22C56.9874 15.3822 56.6149 15.4634 56.2085 15.4634C55.5311 15.4634 55.0146 15.2605 54.659 14.8548C54.3034 14.4492 54.1256 13.8586 54.1256 13.0833C54.1256 12.894 54.1298 12.7498 54.1383 12.6506L54.3669 9.54033C54.3923 9.24282 54.4981 9.00842 54.6844 8.83713C54.8791 8.66584 55.1247 8.5802 55.421 8.5802C55.7174 8.5802 55.9417 8.66584 56.0942 8.83713C56.2466 9.00842 56.3101 9.24282 56.2847 9.54033L56.056 12.5289C56.0222 12.9706 56.0857 13.3042 56.2466 13.5296C56.4074 13.755 56.6572 13.8677 56.9959 13.8677C57.3684 13.8677 57.6648 13.7369 57.8849 13.4755C58.1135 13.205 58.2448 12.8444 58.2787 12.3937L58.4946 9.54033C58.52 9.24282 58.6258 9.00842 58.8121 8.83713C58.9984 8.66584 59.2397 8.5802 59.536 8.5802Z" fill="#4D4D4D"/>
<path d="M69.5678 8.55315C70.2198 8.55315 70.7151 8.756 71.0538 9.16168C71.3925 9.56737 71.5618 10.1624 71.5618 10.9467C71.5618 11.145 71.5576 11.2938 71.5491 11.393L71.3205 14.4762C71.2951 14.8007 71.1893 15.0442 71.003 15.2064C70.8167 15.3597 70.5839 15.4363 70.3044 15.4363C70.025 15.4363 69.7964 15.3552 69.6186 15.1929C69.4493 15.0306 69.3773 14.7917 69.4027 14.4762L69.6313 11.4471C69.6398 11.384 69.644 11.2938 69.644 11.1766C69.644 10.4914 69.3646 10.1489 68.8058 10.1489C68.0776 10.1489 67.6712 10.6808 67.5865 11.7446L67.3833 14.4762C67.3579 14.7917 67.2478 15.0306 67.0531 15.1929C66.8668 15.3552 66.6382 15.4363 66.3673 15.4363C66.0878 15.4363 65.8592 15.3552 65.6814 15.1929C65.5121 15.0306 65.4401 14.7917 65.4655 14.4762L65.6941 11.4606C65.7026 11.3975 65.7068 11.3073 65.7068 11.1901C65.7068 10.4959 65.4274 10.1489 64.8686 10.1489C64.1404 10.1489 63.734 10.6808 63.6493 11.7446L63.4461 14.4762C63.4207 14.7917 63.3106 15.0306 63.1159 15.1929C62.9296 15.3552 62.701 15.4363 62.4301 15.4363C62.1507 15.4363 61.922 15.3552 61.7442 15.1929C61.5749 15.0306 61.5029 14.7917 61.5283 14.4762L61.8966 9.51328C61.922 9.21578 62.0364 8.98589 62.2396 8.82361C62.4428 8.66134 62.6798 8.5802 62.9508 8.5802C63.1963 8.5802 63.3953 8.65683 63.5477 8.81009C63.7086 8.96335 63.7848 9.17521 63.7763 9.44567C64.0219 9.14816 64.2971 8.92729 64.6019 8.78304C64.9152 8.62978 65.2708 8.55315 65.6687 8.55315C66.0921 8.55315 66.4562 8.64781 66.761 8.83713C67.0658 9.02646 67.2944 9.30142 67.4468 9.66203C67.6924 9.30142 67.9972 9.02646 68.3612 8.83713C68.7253 8.64781 69.1275 8.55315 69.5678 8.55315Z" fill="#4D4D4D"/>
</svg>
