<svg width="68" height="12" viewBox="0 0 68 12" fill="none" xmlns="http://www.w3.org/2000/svg">
<path fill-rule="evenodd" clip-rule="evenodd" d="M62.7863 0.666992C64.4852 0.666992 65.8067 0.945663 66.675 1.50301C67.5056 2.02551 67.9964 2.89636 67.9964 3.80204C68.0342 4.60322 67.7699 5.36957 67.2791 5.99657C66.7505 6.58875 65.9954 6.97192 65.2026 7.11126L64.7873 7.18093L66.5618 11.5003H62.7108L61.0118 6.20558L59.9547 11.5003H23.6723L25.3335 3.10536H23.1815L21.5203 11.5003H7.73974L5.17241 4.67289L3.85099 11.5003H0L2.15202 0.666992H6.15404L8.79688 7.32026L10.1183 0.666992H33.262L32.7712 3.10536H29.0712L28.6937 4.98639H32.2426L31.8273 7.11126H28.2406L27.8631 9.02712H33.7906L35.4518 0.666992H39.3405L37.7548 8.60911H40.3977L41.9834 0.666992H45.8721L44.2864 8.60911H47.0048L48.5905 0.666992H56.0282L55.5373 3.10536H51.8751L51.4976 4.98639H55.0465L54.6312 7.11126H51.0823L50.7047 9.02712H56.5945L58.2557 0.666992H62.7863ZM63.5034 5.40476C62.9749 5.68344 62.3708 5.82277 61.8045 5.78794H61.0494L61.6157 2.86189H62.1443C62.6351 2.82706 63.1259 2.93156 63.5789 3.14056C63.9565 3.34956 64.1453 3.76757 64.1453 4.15074C64.183 4.67325 63.9187 5.12609 63.5034 5.40476ZM18.0847 9.06207H12.1949L12.5725 7.14621H16.2724L16.6877 4.98651H13.0255L13.3653 3.10548H19.2551L18.0847 9.06207Z" fill="#8DC640"/>
</svg>
