<svg width="39" height="7" viewBox="0 0 39 7" fill="none" xmlns="http://www.w3.org/2000/svg">
<path fill-rule="evenodd" clip-rule="evenodd" d="M35.5681 0.271484C36.5131 0.271484 37.2481 0.425109 37.7311 0.732357C38.1931 1.0204 38.4661 1.50048 38.4661 1.99976C38.4871 2.44143 38.3401 2.86389 38.0671 3.20955C37.7731 3.536 37.3531 3.74723 36.9121 3.82405L36.6811 3.86245L37.6681 6.24363H35.5261L34.5811 3.32477L33.993 6.24363H13.8117L14.7358 1.6157H13.5387L12.6147 6.24363H4.9496L3.52158 2.47983L2.78656 6.24363H0.644531L1.84155 0.271484H4.06758L5.53761 3.93926L6.27262 0.271484H19.1458L18.8728 1.6157H16.8148L16.6048 2.65266H18.5788L18.3478 3.82405H16.3528L16.1428 4.88021H19.4398L20.3638 0.271484H22.5269L21.6449 4.64978H23.1149L23.9969 0.271484H26.1599L25.2779 4.64978H26.7899L27.672 0.271484H31.809L31.536 1.6157H29.499L29.289 2.65266H31.263L31.032 3.82405H29.058L28.848 4.88021H32.124L33.048 0.271484H35.5681ZM35.9671 2.88322C35.6731 3.03684 35.3371 3.11366 35.0221 3.09445H34.6021L34.9171 1.4814H35.2111C35.4841 1.46219 35.7571 1.5198 36.0091 1.63502C36.2191 1.75024 36.3241 1.98068 36.3241 2.19191C36.3451 2.47996 36.1981 2.7296 35.9671 2.88322ZM10.7038 4.89948H7.42771L7.63771 3.84331H9.69574L9.92675 2.65272H7.88971L8.07872 1.61576H11.3548L10.7038 4.89948Z" fill="#8DC640"/>
</svg>
