<svg width="34" height="12" viewBox="0 0 34 12" fill="none" xmlns="http://www.w3.org/2000/svg">
<path fill-rule="evenodd" clip-rule="evenodd" d="M23.107 1.74639C23.107 0.998374 23.717 0.391602 24.468 0.391602C25.2204 0.391602 25.8299 0.998374 25.8299 1.74639C25.8299 2.49485 25.2204 3.1003 24.468 3.1003C23.717 3.1003 23.107 2.49485 23.107 1.74639ZM27.0202 1.49958L29.7806 1.00809V11.552H27.0202V1.49958ZM31.0521 1.49958V11.552H33.8143V1.00809L31.0521 1.49958ZM23.0881 3.83993V11.552H25.8498V3.83993H23.0881ZM17.682 7.21351C17.682 4.94834 18.9784 3.80872 21.5301 3.72688C21.5301 3.72688 21.9909 3.70928 22.263 3.76692V6.02109C20.6455 6.07653 20.4668 6.65778 20.4668 8.01345V11.552H17.682V7.21351ZM14.0375 3.83119L14.0235 3.86751C13.9246 4.12573 13.4746 5.30095 12.4647 6.51612V1.00809L9.61448 1.5691V11.552H12.4647V8.46581C13.29 9.69783 13.6978 11.552 13.6978 11.552H17.1111C16.7736 10.1554 15.2968 7.58095 15.2968 7.58095C16.6228 5.90803 17.2045 4.12643 17.2973 3.83119H14.0375ZM3.67748 4.13215C3.67748 4.85597 4.48602 4.90833 4.83499 4.93077C7.39462 5.10149 8.92013 6.34804 8.92013 8.26604C8.92013 9.95832 7.55606 11.6651 4.513 11.6651C3.10204 11.6651 1.89808 11.5269 0.830357 11.2475V8.78437C1.54335 9.0761 2.71812 9.38234 3.92827 9.38234C5.03271 9.38234 5.68953 9.0189 5.68953 8.40112C5.68953 7.65581 4.89297 7.60725 4.58751 7.58863L4.58421 7.58843C1.01966 7.34686 0.635742 5.2489 0.635742 4.35832C0.635742 2.81168 1.73885 1.00809 4.85224 1.00809C6.65818 1.00809 7.6317 1.28837 8.47031 1.5801L8.51233 1.59286V3.98519L8.48092 3.97639C8.14433 3.83471 7.74891 3.69566 7.74891 3.69566C7.03856 3.48402 6.04514 3.25873 5.2773 3.25873C4.84074 3.25873 3.67748 3.25873 3.67748 4.13215Z" fill="#862165"/>
</svg>
