<svg width="48" height="17" viewBox="0 0 48 17" fill="none" xmlns="http://www.w3.org/2000/svg">
<path fill-rule="evenodd" clip-rule="evenodd" d="M32.4609 2.46C32.4609 1.37783 33.342 0.5 34.4269 0.5C35.5137 0.5 36.3942 1.37783 36.3942 2.46C36.3942 3.5428 35.5137 4.41872 34.4269 4.41872C33.342 4.41872 32.4609 3.5428 32.4609 2.46ZM38.1134 2.10266L42.101 1.39162V16.6457H38.1134V2.10266ZM43.9377 2.10266V16.6457H47.9279V1.39162L43.9377 2.10266ZM32.4332 5.48847V16.6456H36.4227V5.48847H32.4332ZM24.6242 10.3694C24.6242 7.09233 26.4969 5.44361 30.1828 5.32521C30.1828 5.32521 30.8486 5.29975 31.2415 5.38314V8.64428C28.905 8.72449 28.6469 9.5654 28.6469 11.5267V16.646H24.6242V10.3694ZM19.339 5.52834L19.339 5.5284C19.1962 5.90199 18.5461 7.60219 17.0873 9.36019V1.39162L12.97 2.20324V16.6457H17.0873V12.1808C18.2795 13.9632 18.8686 16.6457 18.8686 16.6457H23.7992C23.3117 14.6253 21.1783 10.9007 21.1783 10.9007C23.0938 8.48045 23.934 5.90298 24.0682 5.47584H19.3593C19.3543 5.48842 19.3476 5.50601 19.339 5.52834ZM4.39392 5.91126C4.39392 6.95841 5.56188 7.03416 6.066 7.06663C9.76348 7.31362 11.9671 9.11702 11.9671 11.8918C11.9671 14.3401 9.99669 16.8093 5.60086 16.8093C3.56267 16.8093 1.8235 16.6094 0.281129 16.2052V12.6417C1.31108 13.0637 3.00808 13.5068 4.75619 13.5068C6.3516 13.5068 7.30041 12.981 7.30041 12.0873C7.30041 11.009 6.14975 10.9387 5.7085 10.9118L5.70372 10.9115C0.554591 10.562 0 7.52687 0 6.23845C0 4.00091 1.59349 1.39162 6.09091 1.39162C8.69966 1.39162 10.1059 1.79711 11.3174 2.21916L11.3781 2.23762V5.69864L11.3327 5.68591C10.8465 5.48094 10.2753 5.27978 10.2753 5.27978C9.24914 4.97359 7.81411 4.64767 6.70493 4.64767C6.0743 4.64767 4.39392 4.64767 4.39392 5.91126Z" fill="#862165"/>
</svg>
