<svg width="64" height="20" viewBox="0 0 64 20" fill="none" xmlns="http://www.w3.org/2000/svg">
<g clip-path="url(#clip0)">
<path d="M9.12259 18.5359C13.8233 18.5359 17.634 14.7979 17.634 10.1869C17.634 5.57586 13.8233 1.83789 9.12259 1.83789C4.42188 1.83789 0.611206 5.57586 0.611206 10.1869C0.611206 14.7979 4.42188 18.5359 9.12259 18.5359Z" fill="#26A17B"/>
<path d="M10.0296 10.9578V10.9564C9.97076 10.9604 9.66698 10.9779 8.99099 10.9779C8.45048 10.9779 8.07143 10.9631 7.93733 10.9564V10.9578C5.85875 10.8678 4.30836 10.5135 4.30836 10.088C4.30836 9.6638 5.86012 9.30809 7.93733 9.21816V10.6047C8.0728 10.6141 8.46279 10.637 9.00057 10.637C9.64645 10.637 9.96939 10.6101 10.0296 10.6047V9.2195C12.1041 9.31078 13.6504 9.66514 13.6504 10.0893C13.6504 10.5135 12.1027 10.8678 10.0296 10.9591V10.9578ZM10.0296 9.07588V7.83561H12.9237V5.94434H5.04456V7.83561H7.9387V9.07588C5.58644 9.18192 3.81848 9.6383 3.81848 10.1859C3.81848 10.7336 5.58781 11.19 7.9387 11.2974V15.2732H10.031V11.2974C12.3791 11.1913 14.1443 10.7349 14.1443 10.1873C14.1443 9.64098 12.3791 9.18326 10.031 9.07722" fill="white"/>
<path d="M24.8637 6.46031V8.46568H26.8506V9.97037H24.85V13.0214C24.85 13.6952 25.229 14.0241 25.7846 14.0241C26.0624 14.0241 26.3839 13.9382 26.6467 13.8093L27.1434 15.2992C26.633 15.4992 26.2088 15.5851 25.6683 15.5999C24.1056 15.6576 23.0834 14.7838 23.0834 13.0214V9.97037H21.7396V8.46568H23.0834V6.64688L24.8637 6.46031ZM59.1185 8.37172L59.2499 9.18782C59.8055 8.314 60.5499 8.18514 61.2806 8.18514C62.025 8.18514 62.7407 8.47104 63.1348 8.85762L62.3315 10.3757C61.9662 10.0751 61.6309 9.91668 61.0466 9.91668C60.112 9.91668 59.2499 10.4039 59.2499 11.7073V15.4321H57.4683V8.36903L59.1185 8.37172ZM54.752 11.0791C54.6357 10.1623 53.905 9.70326 52.8828 9.70326C51.9194 9.70326 51.1299 10.1623 50.8672 11.0791H54.752ZM50.8384 12.5261C50.9547 13.3999 51.7292 14.0308 52.9854 14.0308C53.6422 14.0308 54.5043 13.7865 54.9135 13.3717L56.052 14.4751C55.2925 15.2482 54.0514 15.6214 52.9553 15.6214C50.4731 15.6214 48.9966 14.1167 48.9966 11.8536C48.9966 9.7046 50.4867 8.15695 52.8239 8.15695C55.2337 8.15695 56.7389 9.6187 56.4611 12.5261H50.8384ZM42.9811 5.40527V9.33011C43.6243 8.514 44.4125 8.2697 45.2308 8.2697C47.2751 8.2697 48.181 9.63078 48.181 11.7086V15.4335H46.3994V11.7234C46.3994 10.4335 45.7124 9.88984 44.7628 9.88984C43.7105 9.88984 42.9811 10.7637 42.9811 11.8241V15.4348H41.1995V5.40662L42.9811 5.40527ZM38.2492 6.37977V8.38514H40.2361V9.88984H38.2356V12.9408C38.2356 13.6147 38.616 13.9435 39.1702 13.9435C39.4479 13.9435 39.7695 13.8576 40.0322 13.7288L40.529 15.2187C40.0186 15.4187 39.5944 15.5046 39.0538 15.5194C37.4911 15.5771 36.469 14.7019 36.469 12.9408V9.88984H35.1252V8.38514H36.469V6.56635L38.2492 6.37977ZM33.3271 11.0791C33.2108 10.1623 32.4801 9.70326 31.4579 9.70326C30.4946 9.70326 29.705 10.1623 29.4423 11.0791H33.3271ZM29.4135 12.5261C29.5299 13.3999 30.3044 14.0308 31.5606 14.0308C32.2174 14.0308 33.0795 13.7865 33.4886 13.3717L34.6271 14.4751C33.8677 15.2482 32.6265 15.6214 31.5304 15.6214C29.0468 15.6214 27.5717 14.1167 27.5717 11.8536C27.5717 9.7046 29.0619 8.15695 31.3977 8.15695C33.8074 8.15695 35.3113 9.6187 35.0349 12.5261H29.4135Z" fill="#5B5A5D"/>
</g>
<defs>
<clipPath id="clip0">
<rect width="63.9038" height="20" fill="white"/>
</clipPath>
</defs>
</svg>
