<svg width="22" height="22" viewBox="0 0 22 22" fill="none" xmlns="http://www.w3.org/2000/svg">
<g clip-path="url(#clip0)">
<path d="M11.2247 21.5429C5.36097 21.5429 0.60751 16.7894 0.60751 10.9257C0.60751 5.06205 5.36097 0.308594 11.2247 0.308594C17.0883 0.308594 21.8418 5.06205 21.8418 10.9257C21.8418 16.7894 17.0883 21.5429 11.2247 21.5429Z" fill="#26A17B"/>
<path d="M10.0927 12.0672V12.0656C10.1674 12.0705 10.5533 12.0915 11.4118 12.0915C12.0983 12.0915 12.5798 12.0737 12.7501 12.0656V12.0672C15.3901 11.9587 17.3592 11.5312 17.3592 11.0178C17.3592 10.5061 15.3884 10.0769 12.7501 9.9684V11.6413C12.578 11.6526 12.0827 11.6802 11.3997 11.6802C10.5793 11.6802 10.1692 11.6478 10.0927 11.6413V9.97002C7.45792 10.0801 5.49399 10.5077 5.49399 11.0194C5.49399 11.5312 7.45966 11.9587 10.0927 12.0688V12.0672ZM10.0927 9.79674V8.30037H6.41686V6.01855H16.4242V8.30037H12.7484V9.79674C15.736 9.92468 17.9814 10.4753 17.9814 11.136C17.9814 11.7968 15.7342 12.3474 12.7484 12.4769V17.2738H10.091V12.4769C7.10858 12.349 4.86657 11.7984 4.86657 11.1376C4.86657 10.4785 7.10858 9.9263 10.091 9.79836" fill="white"/>
</g>
<defs>
<clipPath id="clip0">
<rect width="21.2343" height="21.2343" fill="white" transform="matrix(-1 0 0 1 21.8418 0.308594)"/>
</clipPath>
</defs>
</svg>
